<?xml version="1.0" encoding="UTF-8" standalone="no"?>
<svg
   xmlns:dc="http://purl.org/dc/elements/1.1/"
   xmlns:cc="http://creativecommons.org/ns#"
   xmlns:rdf="http://www.w3.org/1999/02/22-rdf-syntax-ns#"
   xmlns:svg="http://www.w3.org/2000/svg"
   xmlns="http://www.w3.org/2000/svg"
   version="1.1"
   id="svg833"
   xml:space="preserve"
   width="131mm"
   height="101mm"
   viewBox="0 0 495.11808 381.73228"><metadata
     id="metadata839"><rdf:RDF><cc:Work
         rdf:about=""><dc:format>image/svg+xml</dc:format><dc:type
           rdf:resource="http://purl.org/dc/dcmitype/StillImage" /><dc:title></dc:title></cc:Work></rdf:RDF></metadata><defs
     id="defs837"><clipPath
       clipPathUnits="userSpaceOnUse"
       id="clipPath1259"><path
         d="m 1480.59,2544.97 v 54.9 h 5.22 v -3.42 c 2.25,2.7 4.86,4.05 7.92,4.05 1.53,0 2.88,-0.27 4.05,-0.9 1.17,-0.63 2.07,-1.44 2.7,-2.43 0.63,-1.08 1.17,-2.25 1.62,-3.78 0.36,-1.53 0.63,-2.97 0.81,-4.41 0.09,-1.44 0.18,-3.06 0.18,-4.95 v -8.73 c 0,-2.16 -0.09,-4.14 -0.27,-5.85 -0.18,-1.71 -0.54,-3.33 -0.99,-4.77 -0.45,-1.53 -1.08,-2.7 -1.8,-3.69 -0.81,-0.99 -1.71,-1.71 -2.88,-2.25 -1.17,-0.54 -2.43,-0.81 -3.96,-0.81 -2.7,0 -5.13,1.26 -7.38,3.87 v -16.83 h -5.22 m 5.22,48.24 v -28.17 c 1.89,-1.98 4.05,-2.97 6.57,-2.97 0.9,0 1.71,0.18 2.34,0.54 l 1.62,1.62 c 0.36,0.63 0.72,1.53 0.9,2.7 0.27,1.08 0.45,2.34 0.45,3.6 0.09,1.35 0.18,2.88 0.18,4.68 v 8.82 c 0,4.41 -0.36,7.56 -1.17,9.54 -0.72,1.89 -2.25,2.88 -4.5,2.88 -2.07,0 -4.23,-1.08 -6.39,-3.24 m -631.982,-47.88 c -1.617,0.27 -3.148,0.63 -4.406,1.17 -1.262,0.54 -2.25,1.26 -2.973,2.16 -0.629,0.9 -0.988,1.98 -0.988,3.33 0,1.98 0.719,3.78 1.98,5.49 1.348,1.62 2.969,2.97 4.86,3.96 -1.262,0.36 -2.34,0.9 -3.242,1.53 -0.899,0.63 -1.348,1.35 -1.348,2.16 0,2.16 1.617,4.95 4.949,8.37 -3.512,2.52 -5.219,6.66 -5.219,12.6 0,1.98 0.27,3.87 0.719,5.58 0.449,1.71 1.168,3.24 2.07,4.59 0.899,1.35 2.161,2.34 3.598,3.15 1.531,0.72 3.242,1.08 5.133,1.08 4.23,0 7.199,-1.71 8.91,-5.13 0.449,0.81 1.168,1.62 2.25,2.52 1.078,0.9 2.16,1.62 3.328,2.07 l 1.082,0.45 1.438,-3.6 c -1.168,-0.27 -2.43,-0.81 -3.867,-1.53 -1.352,-0.72 -2.34,-1.44 -2.973,-2.07 0.359,-0.9 0.633,-1.98 0.902,-3.51 0.27,-1.53 0.449,-2.7 0.449,-3.69 0,-4.5 -0.902,-8.01 -2.789,-10.62 -1.8,-2.61 -4.679,-3.87 -8.64,-3.87 -0.629,0 -1.352,0.09 -2.34,0.18 -0.902,0.18 -1.531,0.36 -1.801,0.45 l -0.808,-1.17 -0.993,-1.53 -0.718,-1.35 -0.36,-1.26 c 0,-0.72 1.168,-1.26 3.418,-1.62 0.539,-0.09 1.711,-0.36 3.512,-0.63 1.891,-0.27 2.879,-0.45 3.148,-0.45 3.422,-0.63 6.032,-1.71 7.743,-3.24 1.707,-1.53 2.609,-3.6 2.609,-6.3 0,-3.33 -1.172,-5.76 -3.422,-7.29 -2.34,-1.53 -5.488,-2.34 -9.449,-2.34 -2.16,0 -4.051,0.09 -5.762,0.36 m -3.867,8.37 c 0,-1.62 0.719,-2.79 2.25,-3.51 1.527,-0.63 3.961,-0.99 7.379,-0.99 2.699,0 4.769,0.36 6.39,1.26 1.532,0.9 2.34,2.25 2.34,3.96 0,1.53 -0.539,2.7 -1.621,3.51 -1.078,0.9 -3.148,1.53 -6.211,2.16 l -5.308,0.63 c -3.418,-2.16 -5.219,-4.5 -5.219,-7.02 m 6.211,42.39 -1.981,-1.71 c -0.543,-0.72 -0.992,-1.53 -1.261,-2.52 -0.36,-0.99 -0.539,-1.89 -0.629,-2.88 -0.09,-0.9 -0.18,-1.89 -0.18,-2.88 0,-7.2 2.34,-10.8 6.93,-10.8 1.168,0 2.16,0.18 3.058,0.63 l 1.981,1.71 c 0.449,0.63 0.808,1.53 1.082,2.52 0.269,0.99 0.449,1.98 0.539,2.88 0.09,0.9 0.18,1.89 0.18,3.06 0,7.11 -2.25,10.71 -6.84,10.71 -1.082,0 -1.981,-0.27 -2.879,-0.72 M 706.23,2544.97 v 54.9 h 5.309 v -3.42 c 2.16,2.7 4.859,4.05 7.922,4.05 1.527,0 2.879,-0.27 3.961,-0.9 1.168,-0.63 2.066,-1.44 2.789,-2.43 0.629,-1.08 1.168,-2.25 1.617,-3.78 0.363,-1.53 0.633,-2.97 0.723,-4.41 0.179,-1.44 0.269,-3.06 0.269,-4.95 v -8.73 c 0,-2.16 -0.09,-4.14 -0.269,-5.85 -0.27,-1.71 -0.539,-3.33 -0.992,-4.77 -0.539,-1.53 -1.079,-2.7 -1.887,-3.69 -0.723,-0.99 -1.711,-1.71 -2.793,-2.25 -1.168,-0.54 -2.52,-0.81 -4.051,-0.81 -2.609,0 -5.129,1.26 -7.289,3.87 v -16.83 h -5.309 m 5.309,48.24 v -28.17 c 1.891,-1.98 4.051,-2.97 6.481,-2.97 0.902,0 1.71,0.18 2.429,0.54 l 1.531,1.62 c 0.45,0.63 0.719,1.53 0.989,2.7 0.179,1.08 0.359,2.34 0.453,3.6 0.09,1.35 0.09,2.88 0.09,4.68 v 8.82 c 0,4.41 -0.364,7.56 -1.082,9.54 -0.719,1.89 -2.25,2.88 -4.5,2.88 -2.16,0 -4.231,-1.08 -6.391,-3.24 m 259.02,-40.68 c 1.171,0.72 2.07,1.53 2.613,2.43 0.539,0.9 0.808,2.16 0.808,3.6 h -3.152 v 7.74 h 5.852 v -7.2 c 0,-2.34 -0.36,-4.14 -1.168,-5.49 -0.723,-1.35 -2.071,-2.43 -3.871,-3.42 l -1.082,2.34 m 544.771,6.39 c -1.44,0.63 -2.61,1.71 -3.42,3.06 -0.81,1.35 -1.44,2.97 -1.8,4.86 -0.27,1.8 -0.45,4.05 -0.45,6.66 v 11.43 c 0,5.31 0.81,9.18 2.43,11.79 1.62,2.52 4.5,3.78 8.55,3.78 4.14,0 7.02,-1.26 8.64,-3.78 1.62,-2.61 2.43,-6.48 2.43,-11.79 v -11.43 c 0,-2.61 -0.18,-4.86 -0.54,-6.66 -0.36,-1.89 -0.9,-3.51 -1.8,-4.86 -0.81,-1.35 -1.89,-2.43 -3.33,-3.06 -1.44,-0.72 -3.24,-0.99 -5.4,-0.99 -2.07,0 -3.87,0.27 -5.31,0.99 m 3.06,37.35 -1.62,-1.17 -1.08,-1.62 c -0.18,-0.63 -0.45,-1.44 -0.54,-2.34 -0.09,-0.99 -0.18,-1.89 -0.27,-2.7 0,-0.9 0,-1.89 0,-3.24 v -11.97 c 0,-1.26 0,-2.34 0,-3.24 0.09,-0.81 0.18,-1.71 0.27,-2.7 0.09,-0.9 0.36,-1.71 0.54,-2.25 l 1.08,-1.71 1.62,-1.17 2.25,-0.36 c 1.08,0 1.98,0.27 2.7,0.63 l 1.62,1.44 c 0.45,0.54 0.72,1.44 0.99,2.43 0.18,1.08 0.36,2.16 0.36,3.15 0.09,0.9 0.09,2.25 0.09,3.78 v 11.97 c 0,1.62 0,2.88 -0.09,3.87 0,0.9 -0.18,1.98 -0.36,3.06 -0.27,1.08 -0.54,1.89 -0.99,2.43 l -1.62,1.44 c -0.72,0.45 -1.62,0.63 -2.7,0.63 l -2.25,-0.36 m -110.34,-34.74 c -1.71,2.43 -2.61,6.66 -2.61,12.6 v 10.44 c 0,3.96 0.45,7.2 1.26,9.54 0.81,2.34 2.07,4.05 3.6,4.95 1.62,0.99 3.78,1.44 6.39,1.44 1.71,0 3.24,-0.18 4.5,-0.63 1.17,-0.45 2.25,-1.17 3.06,-1.98 0.81,-0.81 1.44,-1.98 1.89,-3.42 0.54,-1.44 0.81,-2.97 0.99,-4.68 0.18,-1.8 0.27,-3.87 0.27,-6.3 v -3.78 h -16.65 v -6.12 c 0,-4.32 0.36,-7.29 1.17,-9.09 0.81,-1.8 2.43,-2.7 4.68,-2.7 1.8,0 3.24,0.63 4.23,1.8 0.99,1.08 1.44,3.24 1.44,6.21 v 2.88 h 5.13 v -2.34 c 0,-3.96 -0.81,-7.02 -2.52,-9.18 -1.71,-2.16 -4.41,-3.24 -8.19,-3.24 -3.96,0 -6.84,1.17 -8.64,3.6 m 3.96,32.76 c -0.9,-1.53 -1.26,-4.41 -1.26,-8.73 v -2.79 h 11.52 v 3.42 c 0,1.44 0,2.61 -0.09,3.6 -0.09,0.9 -0.27,1.89 -0.45,2.79 -0.27,0.99 -0.54,1.71 -0.9,2.25 l -1.71,1.26 c -0.63,0.36 -1.53,0.54 -2.43,0.54 -2.25,0 -3.78,-0.81 -4.68,-2.34 m -68.31,-32.4 c -1.53,2.7 -2.34,7.11 -2.34,13.32 v 7.65 c 0,2.34 0.09,4.32 0.27,6.03 0.18,1.71 0.45,3.33 0.9,4.86 0.45,1.53 0.99,2.7 1.71,3.69 0.72,0.99 1.71,1.71 2.79,2.25 1.17,0.54 2.52,0.81 4.05,0.81 2.79,0 5.22,-1.17 7.29,-3.6 v 19.53 h 5.31 v -57.87 h -5.31 v 2.88 c -2.07,-2.34 -4.41,-3.51 -7.02,-3.51 -3.51,0 -6.12,1.26 -7.65,3.96 m 4.05,31.77 c -0.72,-1.89 -1.17,-4.86 -1.17,-9.09 v -9.72 c 0,-4.5 0.45,-7.83 1.26,-9.81 0.72,-1.98 2.25,-2.97 4.59,-2.97 1.98,0 3.96,0.9 5.94,2.7 v 28.71 c -2.07,1.98 -4.14,2.97 -6.12,2.97 -2.16,0 -3.69,-0.99 -4.5,-2.79 m -29.16,-34.74 c -1.44,0.63 -2.61,1.71 -3.42,3.06 -0.81,1.35 -1.44,2.97 -1.8,4.86 -0.27,1.8 -0.45,4.05 -0.45,6.66 v 11.43 c 0,5.31 0.81,9.18 2.43,11.79 1.62,2.52 4.5,3.78 8.55,3.78 4.14,0 7.02,-1.26 8.64,-3.78 1.62,-2.61 2.43,-6.48 2.43,-11.79 v -11.43 c 0,-2.61 -0.18,-4.86 -0.54,-6.66 -0.36,-1.89 -0.9,-3.51 -1.8,-4.86 -0.81,-1.35 -1.89,-2.43 -3.42,-3.06 -1.44,-0.72 -3.15,-0.99 -5.31,-0.99 -2.07,0 -3.87,0.27 -5.31,0.99 m 3.06,37.35 -1.62,-1.17 -1.08,-1.62 c -0.18,-0.63 -0.45,-1.44 -0.54,-2.34 -0.09,-0.99 -0.18,-1.89 -0.27,-2.7 0,-0.9 0,-1.89 0,-3.24 v -11.97 c 0,-1.26 0,-2.34 0,-3.24 0.09,-0.81 0.18,-1.71 0.27,-2.7 0.09,-0.9 0.36,-1.71 0.54,-2.25 l 1.08,-1.71 1.62,-1.17 2.25,-0.36 c 1.08,0 1.98,0.27 2.7,0.63 l 1.62,1.44 c 0.45,0.54 0.72,1.44 0.99,2.43 0.18,1.08 0.36,2.16 0.36,3.15 0.09,0.9 0.09,2.25 0.09,3.78 v 11.97 c 0,1.62 0,2.88 -0.09,3.87 0,0.9 -0.18,1.98 -0.36,3.06 -0.27,1.08 -0.54,1.89 -0.99,2.43 l -1.62,1.44 c -0.72,0.45 -1.62,0.63 -2.7,0.63 l -2.25,-0.36 m -78.39,-35.19 c -1.98,2.07 -3.06,4.95 -3.42,8.55 l 4.41,1.35 c 0.27,-3.15 0.99,-5.49 2.16,-6.93 1.17,-1.44 2.79,-2.25 4.95,-2.25 1.8,0 3.24,0.54 4.23,1.62 0.99,1.08 1.53,2.43 1.53,4.14 v 0.27 c -0.09,2.7 -1.71,5.49 -5.04,8.19 l -5.58,4.77 c -1.98,1.71 -3.42,3.33 -4.32,4.86 -0.9,1.53 -1.35,3.33 -1.35,5.4 0,3.06 0.9,5.4 2.7,7.02 1.8,1.62 4.14,2.43 7.2,2.43 3.06,0 5.4,-0.99 7.02,-2.88 1.62,-1.98 2.52,-4.59 2.7,-7.92 l -3.69,-1.26 c -0.18,2.79 -0.72,4.86 -1.71,6.12 -0.9,1.35 -2.34,2.07 -4.14,2.07 -1.62,0 -2.97,-0.45 -3.87,-1.35 -0.99,-0.9 -1.44,-2.07 -1.44,-3.6 0,-1.35 0.18,-2.52 0.72,-3.51 0.45,-0.9 1.35,-1.98 2.7,-3.06 l 5.76,-5.22 c 1.08,-0.9 1.98,-1.71 2.61,-2.43 0.63,-0.72 1.35,-1.53 2.07,-2.52 0.81,-1.08 1.35,-2.16 1.71,-3.33 0.36,-1.17 0.54,-2.43 0.54,-3.78 0,-3.15 -0.9,-5.58 -2.88,-7.38 -1.89,-1.71 -4.5,-2.52 -7.74,-2.52 -3.24,0 -5.85,0.99 -7.83,3.15 m -29.7,-0.81 c -1.08,1.53 -1.62,3.69 -1.62,6.48 v 33.12 h 5.22 v -32.04 c 0,-2.07 0.36,-3.6 0.99,-4.5 0.63,-0.81 1.62,-1.26 2.97,-1.26 2.34,0 4.77,1.35 7.29,4.05 v 33.75 h 5.22 v -41.31 h -5.22 v 4.59 c -3.06,-3.51 -6.48,-5.22 -10.08,-5.22 -2.07,0 -3.69,0.72 -4.77,2.34 m -42.3,1.26 c -1.8,2.43 -2.61,6.66 -2.61,12.6 v 10.44 c 0,3.96 0.36,7.2 1.17,9.54 0.9,2.34 2.07,4.05 3.69,4.95 1.53,0.99 3.69,1.44 6.3,1.44 1.8,0 3.24,-0.18 4.5,-0.63 1.17,-0.45 2.25,-1.17 3.06,-1.98 0.81,-0.81 1.44,-1.98 1.89,-3.42 0.54,-1.44 0.81,-2.97 0.99,-4.68 0.27,-1.8 0.36,-3.87 0.36,-6.3 l -0.09,-3.78 h -16.65 v -6.12 c 0,-4.32 0.36,-7.29 1.26,-9.09 0.81,-1.8 2.34,-2.7 4.59,-2.7 1.89,0 3.24,0.63 4.23,1.8 0.99,1.08 1.44,3.24 1.44,6.21 v 2.88 h 5.13 v -2.34 c 0,-3.96 -0.81,-7.02 -2.52,-9.18 -1.62,-2.16 -4.41,-3.24 -8.19,-3.24 -3.96,0 -6.84,1.17 -8.55,3.6 m 3.87,32.76 c -0.81,-1.53 -1.26,-4.41 -1.26,-8.73 v -2.79 h 11.52 v 3.42 c 0,1.44 0,2.61 -0.09,3.6 -0.09,0.9 -0.18,1.89 -0.45,2.79 -0.18,0.99 -0.54,1.71 -0.9,2.25 l -1.62,1.26 c -0.72,0.36 -1.53,0.54 -2.52,0.54 -2.25,0 -3.78,-0.81 -4.68,-2.34 m -43.92,-35.37 c -1.44,0.63 -2.61,1.71 -3.42,3.06 -0.81,1.35 -1.35,2.97 -1.71,4.86 -0.36,1.8 -0.54,4.05 -0.54,6.66 v 11.43 c 0,5.31 0.81,9.18 2.43,11.79 1.62,2.52 4.5,3.78 8.55,3.78 4.14,0 7.02,-1.26 8.64,-3.78 1.62,-2.61 2.43,-6.48 2.43,-11.79 v -11.43 c 0,-2.61 -0.18,-4.86 -0.54,-6.66 -0.36,-1.89 -0.9,-3.51 -1.71,-4.86 -0.9,-1.35 -1.98,-2.43 -3.42,-3.06 -1.44,-0.72 -3.24,-0.99 -5.4,-0.99 -2.07,0 -3.87,0.27 -5.31,0.99 m 3.06,37.35 -1.62,-1.17 -0.99,-1.62 c -0.27,-0.63 -0.45,-1.44 -0.63,-2.34 -0.09,-0.99 -0.18,-1.89 -0.18,-2.7 -0.09,-0.9 -0.09,-1.89 -0.09,-3.24 v -11.97 c 0,-1.26 0,-2.34 0.09,-3.24 0,-0.81 0.09,-1.71 0.18,-2.7 0.18,-0.9 0.36,-1.71 0.63,-2.25 l 0.99,-1.71 1.62,-1.17 2.25,-0.36 c 1.08,0 1.98,0.27 2.7,0.63 l 1.71,1.44 c 0.36,0.54 0.72,1.44 0.9,2.43 0.18,1.08 0.36,2.16 0.36,3.15 0.09,0.9 0.09,2.25 0.09,3.78 v 11.97 c 0,1.62 0,2.88 -0.09,3.87 0,0.9 -0.18,1.98 -0.36,3.06 -0.18,1.08 -0.54,1.89 -0.9,2.43 l -1.71,1.44 c -0.72,0.45 -1.62,0.63 -2.7,0.63 l -2.25,-0.36 m -35.91,-34.38 c -1.53,2.7 -2.34,7.11 -2.34,13.32 v 7.65 c 0,2.34 0.09,4.32 0.27,6.03 0.18,1.71 0.45,3.33 0.9,4.86 0.45,1.53 0.99,2.7 1.71,3.69 0.72,0.99 1.71,1.71 2.79,2.25 1.17,0.54 2.52,0.81 4.05,0.81 2.79,0 5.22,-1.17 7.29,-3.6 v 19.53 h 5.31 v -57.87 h -5.31 v 2.88 c -2.07,-2.34 -4.41,-3.51 -7.02,-3.51 -3.6,0 -6.12,1.26 -7.65,3.96 m 4.05,31.77 c -0.72,-1.89 -1.17,-4.86 -1.17,-9.09 v -9.72 c 0,-4.5 0.45,-7.83 1.17,-9.81 0.81,-1.98 2.34,-2.97 4.68,-2.97 1.98,0 3.96,0.9 5.94,2.7 v 28.71 c -2.07,1.98 -4.14,2.97 -6.12,2.97 -2.16,0 -3.69,-0.99 -4.5,-2.79 m -48.15,-31.77 c -1.53,2.7 -2.34,7.11 -2.34,13.32 v 7.65 c 0,2.34 0.09,4.32 0.27,6.03 0.18,1.71 0.45,3.33 0.9,4.86 0.45,1.53 0.99,2.7 1.71,3.69 0.72,0.99 1.71,1.71 2.79,2.25 1.17,0.54 2.52,0.81 4.05,0.81 2.79,0 5.22,-1.17 7.29,-3.6 v 19.53 h 5.31 v -57.87 h -5.31 v 2.88 c -2.07,-2.34 -4.41,-3.51 -7.02,-3.51 -3.6,0 -6.12,1.26 -7.65,3.96 m 4.05,31.77 c -0.72,-1.89 -1.17,-4.86 -1.17,-9.09 v -9.72 c 0,-4.5 0.45,-7.83 1.17,-9.81 0.81,-1.98 2.34,-2.97 4.68,-2.97 1.98,0 3.96,0.9 5.94,2.7 v 28.71 c -2.07,1.98 -4.14,2.97 -6.12,2.97 -2.16,0 -3.69,-0.99 -4.5,-2.79 m -32.04,-32.13 c -1.71,2.43 -2.61,6.66 -2.61,12.6 v 10.44 c 0,3.96 0.45,7.2 1.26,9.54 0.81,2.34 2.07,4.05 3.6,4.95 1.62,0.99 3.78,1.44 6.39,1.44 1.71,0 3.24,-0.18 4.41,-0.63 1.26,-0.45 2.34,-1.17 3.15,-1.98 0.81,-0.81 1.44,-1.98 1.89,-3.42 0.45,-1.44 0.81,-2.97 0.99,-4.68 0.18,-1.8 0.27,-3.87 0.27,-6.3 v -3.78 h -16.74 v -6.12 c 0,-4.32 0.45,-7.29 1.26,-9.09 0.81,-1.8 2.43,-2.7 4.68,-2.7 1.8,0 3.24,0.63 4.23,1.8 0.9,1.08 1.44,3.24 1.44,6.21 v 2.88 h 5.13 v -2.34 c 0,-3.96 -0.81,-7.02 -2.52,-9.18 -1.71,-2.16 -4.41,-3.24 -8.28,-3.24 -3.96,0 -6.75,1.17 -8.55,3.6 m 3.96,32.76 c -0.9,-1.53 -1.35,-4.41 -1.35,-8.73 v -2.79 h 11.61 v 3.42 c 0,1.44 -0.09,2.61 -0.09,3.6 -0.09,0.9 -0.27,1.89 -0.45,2.79 -0.27,0.99 -0.54,1.71 -0.9,2.25 l -1.71,1.26 c -0.63,0.36 -1.53,0.54 -2.52,0.54 -2.16,0 -3.69,-0.81 -4.59,-2.34 m -30.15,-33.21 c -1.978,2.07 -3.06,4.95 -3.33,8.55 l 4.41,1.35 c 0.27,-3.15 0.99,-5.49 2.16,-6.93 1.17,-1.44 2.79,-2.25 4.86,-2.25 1.8,0 3.24,0.54 4.32,1.62 0.99,1.08 1.44,2.43 1.44,4.14 v 0.27 c 0,2.7 -1.71,5.49 -4.95,8.19 l -5.67,4.77 c -1.98,1.71 -3.422,3.33 -4.32,4.86 -0.898,1.53 -1.352,3.33 -1.352,5.4 0,3.06 0.903,5.4 2.702,7.02 1.8,1.62 4.23,2.43 7.2,2.43 3.06,0 5.4,-0.99 7.02,-2.88 1.62,-1.98 2.61,-4.59 2.79,-7.92 l -3.78,-1.26 c -0.09,2.79 -0.72,4.86 -1.62,6.12 -0.99,1.35 -2.34,2.07 -4.23,2.07 -1.62,0 -2.88,-0.45 -3.87,-1.35 -0.99,-0.9 -1.44,-2.07 -1.44,-3.6 0,-1.35 0.27,-2.52 0.72,-3.51 0.54,-0.9 1.44,-1.98 2.7,-3.06 l 5.85,-5.22 c 0.99,-0.9 1.89,-1.71 2.52,-2.43 0.72,-0.72 1.35,-1.53 2.16,-2.52 0.72,-1.08 1.26,-2.16 1.62,-3.33 0.36,-1.17 0.54,-2.43 0.63,-3.78 0,-3.15 -0.99,-5.58 -2.88,-7.38 -1.89,-1.71 -4.5,-2.52 -7.74,-2.52 -3.33,0 -5.94,0.99 -7.92,3.15 m -104.58,0.45 c -1.711,2.43 -2.609,6.66 -2.609,12.6 v 10.44 c 0,3.96 0.449,7.2 1.257,9.54 0.813,2.34 2.071,4.05 3.602,4.95 1.621,0.99 3.781,1.44 6.391,1.44 1.711,0 3.238,-0.18 4.5,-0.63 1.168,-0.45 2.25,-1.17 3.058,-1.98 0.813,-0.81 1.442,-1.98 1.891,-3.42 0.539,-1.44 0.808,-2.97 0.988,-4.68 0.184,-1.8 0.274,-3.87 0.274,-6.3 v -3.78 h -16.653 v -6.12 c 0,-4.32 0.36,-7.29 1.172,-9.09 0.809,-1.8 2.43,-2.7 4.68,-2.7 1.801,0 3.238,0.63 4.23,1.8 0.989,1.08 1.438,3.24 1.438,6.21 v 2.88 h 5.133 v -2.34 c 0,-3.96 -0.813,-7.02 -2.524,-9.18 -1.707,-2.16 -4.406,-3.24 -8.187,-3.24 -3.961,0 -6.84,1.17 -8.641,3.6 m 3.961,32.76 c -0.902,-1.53 -1.262,-4.41 -1.262,-8.73 v -2.79 h 11.52 v 3.42 c 0,1.44 0,2.61 -0.09,3.6 -0.09,0.9 -0.27,1.89 -0.449,2.79 -0.18,0.99 -0.539,1.71 -0.899,2.25 l -1.711,1.26 c -0.629,0.36 -1.531,0.54 -2.429,0.54 -2.25,0 -3.782,-0.81 -4.68,-2.34 m -117.359,-35.55 c -1.352,0.54 -2.43,1.26 -3.243,2.16 -0.808,0.9 -1.437,2.07 -1.89,3.51 -0.449,1.53 -0.719,2.97 -0.899,4.5 -0.179,1.53 -0.179,3.24 -0.179,5.31 v 9.63 c 0,3.06 0.089,5.49 0.449,7.47 0.359,2.07 0.898,3.69 1.711,5.13 0.808,1.44 1.98,2.43 3.418,3.15 1.441,0.63 3.242,0.9 5.402,0.9 1.707,0 3.238,-0.18 4.5,-0.63 1.258,-0.36 2.25,-0.99 3.059,-1.71 0.718,-0.72 1.351,-1.71 1.8,-2.79 0.45,-1.17 0.809,-2.34 0.989,-3.6 0.179,-1.26 0.269,-2.79 0.269,-4.5 v -1.98 h -4.859 v 1.98 c 0,3.6 -0.449,6.03 -1.258,7.29 -0.812,1.35 -2.34,2.07 -4.41,2.07 -2.34,0 -3.961,-0.9 -4.68,-2.52 -0.812,-1.71 -1.172,-4.86 -1.172,-9.36 v -11.61 c 0,-4.23 0.36,-7.2 1.262,-8.82 0.809,-1.62 2.34,-2.52 4.59,-2.52 0.988,0 1.801,0.18 2.519,0.45 l 1.622,1.17 0.988,1.98 c 0.18,0.9 0.359,1.8 0.449,2.79 0,0.99 0.09,2.16 0.09,3.6 v 2.34 h 4.859 v -2.07 c 0,-1.8 -0.09,-3.42 -0.269,-4.68 -0.18,-1.35 -0.449,-2.61 -0.899,-3.87 -0.449,-1.26 -1.082,-2.25 -1.8,-3.06 -0.719,-0.81 -1.801,-1.44 -3.059,-1.89 -1.262,-0.45 -2.789,-0.63 -4.5,-0.63 -1.891,0 -3.512,0.27 -4.859,0.81 m -29.793,2.34 c -1.981,2.07 -3.149,4.95 -3.418,8.55 l 4.41,1.35 c 0.269,-3.15 0.988,-5.49 2.16,-6.93 1.168,-1.44 2.789,-2.25 4.859,-2.25 1.891,0 3.239,0.54 4.321,1.62 0.988,1.08 1.531,2.43 1.531,4.14 v 0.27 c -0.094,2.7 -1.801,5.49 -5.043,8.19 l -5.668,4.77 c -1.981,1.71 -3.422,3.33 -4.32,4.86 -0.903,1.53 -1.262,3.33 -1.262,5.4 0,3.06 0.902,5.4 2.699,7.02 1.711,1.62 4.141,2.43 7.113,2.43 3.059,0 5.399,-0.99 7.11,-2.88 1.621,-1.98 2.519,-4.59 2.699,-7.92 l -3.691,-1.26 c -0.18,2.79 -0.719,4.86 -1.707,6.12 -0.993,1.35 -2.34,2.07 -4.141,2.07 -1.621,0 -2.973,-0.45 -3.961,-1.35 -0.898,-0.9 -1.441,-2.07 -1.441,-3.6 0,-1.35 0.269,-2.52 0.722,-3.51 0.539,-0.9 1.438,-1.98 2.699,-3.06 l 5.848,-5.22 c 1.082,-0.9 1.891,-1.71 2.613,-2.43 0.629,-0.72 1.348,-1.53 2.071,-2.52 0.718,-1.08 1.347,-2.16 1.707,-3.33 0.359,-1.17 0.543,-2.43 0.543,-3.78 0,-3.15 -0.992,-5.58 -2.883,-7.38 -1.891,-1.71 -4.5,-2.52 -7.738,-2.52 -3.243,0 -5.942,0.99 -7.832,3.15 m -88.649,0.81 c -1.531,2.7 -2.25,7.11 -2.25,13.32 v 7.65 c 0,2.34 0,4.32 0.18,6.03 0.18,1.71 0.449,3.33 0.898,4.86 0.453,1.53 1.082,2.7 1.801,3.69 0.723,0.99 1.621,1.71 2.789,2.25 1.082,0.54 2.434,0.81 4.051,0.81 2.699,0 5.133,-1.17 7.293,-3.6 v 19.53 h 5.219 v -57.87 h -5.219 v 2.88 c -2.07,-2.34 -4.5,-3.51 -7.113,-3.51 -3.508,0 -6.118,1.26 -7.649,3.96 m 4.141,31.77 c -0.813,-1.89 -1.172,-4.86 -1.172,-9.09 v -9.72 c 0,-4.5 0.359,-7.83 1.172,-9.81 0.808,-1.98 2.34,-2.97 4.59,-2.97 2.07,0 4.05,0.9 6.031,2.7 v 28.71 c -2.07,1.98 -4.141,2.97 -6.121,2.97 -2.25,0 -3.781,-0.99 -4.5,-2.79 m -32.852,-33.12 c -1.527,1.8 -2.34,4.05 -2.34,6.66 0,1.35 0.09,2.61 0.36,3.69 0.179,1.08 0.633,2.07 1.261,3.06 0.629,0.9 1.348,1.8 2.161,2.52 0.718,0.72 1.8,1.53 3.148,2.34 1.441,0.81 2.789,1.53 4.231,2.25 1.441,0.72 3.242,1.53 5.492,2.52 v 2.97 c 0,3.87 -0.364,6.48 -1.082,7.92 -0.719,1.35 -2.071,2.07 -4.051,2.07 -3.867,0 -5.758,-2.34 -5.758,-7.02 v -1.53 l -5.133,0.18 v 1.26 c 0.184,3.87 1.172,6.66 3.063,8.46 1.89,1.71 4.59,2.61 8.097,2.61 3.692,0 6.211,-1.08 7.832,-3.24 1.532,-2.16 2.25,-5.58 2.25,-10.35 v -20.16 c 0,-3.33 0.18,-6.03 0.36,-8.19 h -4.59 l -0.809,5.76 c -0.632,-1.89 -1.711,-3.33 -3.152,-4.59 -1.527,-1.26 -3.328,-1.8 -5.398,-1.8 -2.43,0 -4.411,0.81 -5.942,2.61 m 13.68,19.26 c -1.168,-0.63 -2.07,-1.08 -2.699,-1.35 l -2.16,-1.26 -1.891,-1.17 -1.438,-1.26 -1.171,-1.26 -0.809,-1.44 -0.449,-1.71 -0.184,-1.98 c 0,-1.98 0.453,-3.51 1.352,-4.5 0.898,-0.99 2.07,-1.44 3.422,-1.44 1.437,0 2.699,0.45 3.867,1.44 1.172,0.9 2.07,2.07 2.793,3.42 v 12.87 l -0.633,-0.36 m 741.601,-19.44 c -1.08,1.53 -1.62,3.78 -1.62,6.75 v 29.34 h -5.04 v 3.42 h 5.04 v 12.78 h 5.22 v -12.78 h 6.84 v -3.42 h -6.84 v -28.8 c 0,-2.07 0.27,-3.51 0.72,-4.32 0.45,-0.81 1.44,-1.17 2.97,-1.17 0.99,0 1.89,0.09 2.88,0.27 v -3.96 c -1.53,-0.27 -2.97,-0.45 -4.32,-0.45 -2.88,0 -4.77,0.81 -5.85,2.34 m -435.242,0 c -1.078,1.53 -1.617,3.78 -1.617,6.75 v 29.34 h -5.043 v 3.42 h 5.043 v 12.78 h 5.219 v -12.78 h 6.84 v -3.42 h -6.84 v -28.8 c 0,-2.07 0.18,-3.51 0.719,-4.32 0.453,-0.81 1.441,-1.17 2.972,-1.17 0.899,0 1.891,0.09 2.879,0.27 v -3.96 c -1.531,-0.27 -2.969,-0.45 -4.32,-0.45 -2.879,0 -4.77,0.81 -5.852,2.34 m 584.282,-1.8 v 41.31 h 5.31 v -5.67 c 1.26,2.07 2.7,3.6 4.41,4.68 1.62,0.99 3.33,1.44 5.04,1.44 h 0.99 v -5.67 c -0.81,0.27 -1.62,0.45 -2.52,0.45 -3.42,0 -6.03,-1.62 -7.92,-4.77 v -31.77 h -5.31 m -71.37,0 v 32.49 c 0,2.25 -0.36,3.78 -1.08,4.68 -0.63,0.9 -1.62,1.35 -2.97,1.35 -2.61,-0.09 -5.22,-1.53 -7.83,-4.32 l 0.09,-1.62 v -32.58 h -4.86 v 32.49 c 0,2.25 -0.36,3.78 -1.08,4.68 -0.72,0.9 -1.71,1.35 -3.06,1.35 -2.61,-0.09 -5.22,-1.53 -7.74,-4.32 v -34.2 h -4.86 v 41.31 h 4.86 v -4.14 c 2.79,3.24 6.03,4.86 9.81,4.86 3.42,0 5.58,-1.8 6.48,-5.4 2.88,3.6 6.3,5.4 10.17,5.4 2.07,0 3.78,-0.72 5.04,-2.16 1.35,-1.53 1.98,-3.96 1.98,-7.29 v -32.58 h -4.95 m -166.86,0 v 32.49 c 0,2.25 -0.36,3.78 -1.08,4.68 -0.72,0.9 -1.71,1.35 -2.97,1.35 -2.7,-0.09 -5.22,-1.53 -7.83,-4.32 l 0.09,-1.62 v -32.58 h -4.86 v 32.49 c 0,2.25 -0.36,3.78 -1.08,4.68 -0.72,0.9 -1.8,1.35 -3.06,1.35 -2.61,-0.09 -5.22,-1.53 -7.74,-4.32 v -34.2 h -4.95 v 41.31 h 4.95 v -4.14 c 2.79,3.24 6.03,4.86 9.72,4.86 3.51,0 5.67,-1.8 6.48,-5.4 2.97,3.6 6.3,5.4 10.26,5.4 2.07,0 3.69,-0.72 5.04,-2.16 1.26,-1.53 1.98,-3.96 1.98,-7.29 v -32.58 h -4.95 m -102.78,0 v 41.31 h 5.22 v -41.31 h -5.22 m -261.272,0 v 41.31 h 5.223 v -41.31 h -5.223 m -14.308,0 v 57.87 h 5.218 v -57.87 h -5.218 m -87.391,0 v 32.04 c 0,2.07 -0.269,3.6 -0.898,4.5 -0.629,0.9 -1.711,1.35 -3.063,1.35 -2.25,0 -4.59,-1.35 -7.109,-3.87 v -34.02 H 819 v 41.31 h 5.219 v -4.23 c 3.062,3.24 6.39,4.86 9.992,4.86 2.07,0 3.598,-0.72 4.68,-2.25 1.078,-1.53 1.621,-3.69 1.621,-6.57 v -33.12 h -5.223 m -30.238,0 v 41.31 h 5.219 v -41.31 h -5.219 m -68.403,0 v 41.31 h 5.223 v -41.31 h -5.223 m -44.457,0 v 41.31 h 5.309 v -41.31 h -5.309 m 506.069,47.07 v 7.11 h 5.22 v -7.11 h -5.22 m -261.272,0 v 7.11 h 5.313 v -7.11 h -5.313 m -131.937,0 v 7.11 h 5.219 v -7.11 h -5.219 m -68.403,0 v 7.11 h 5.313 v -7.11 h -5.313 m -44.457,0 v 7.11 h 5.309 v -7.11 h -5.309 m 122.219,25.11 v 54.99 h 5.219 v -3.51 c 2.25,2.7 4.859,4.14 7.922,4.14 1.527,0 2.879,-0.36 4.051,-0.99 1.168,-0.63 2.07,-1.44 2.699,-2.43 0.719,-0.99 1.258,-2.25 1.621,-3.78 0.449,-1.44 0.719,-2.88 0.808,-4.41 0.09,-1.44 0.18,-3.06 0.18,-4.95 v -8.73 c 0,-2.16 -0.09,-4.14 -0.269,-5.85 -0.18,-1.71 -0.539,-3.33 -0.993,-4.77 -0.449,-1.53 -1.078,-2.7 -1.796,-3.69 -0.813,-0.9 -1.711,-1.71 -2.883,-2.25 -1.168,-0.54 -2.43,-0.81 -3.957,-0.81 -2.703,0 -5.133,1.35 -7.383,3.96 v -16.92 h -5.219 m 5.219,48.24 v -28.17 c 1.891,-1.98 4.051,-2.97 6.57,-2.97 0.903,0 1.711,0.18 2.34,0.63 l 1.621,1.53 c 0.36,0.63 0.719,1.53 0.899,2.7 0.269,1.17 0.453,2.34 0.543,3.69 0,1.26 0.089,2.79 0.089,4.68 v 8.73 c 0,4.5 -0.363,7.65 -1.082,9.54 -0.808,1.89 -2.25,2.88 -4.589,2.88 -2.071,0 -4.231,-1.08 -6.391,-3.24 m 474.841,-40.68 c 1.17,0.72 2.07,1.53 2.61,2.43 0.54,0.99 0.81,2.16 0.81,3.6 h -3.15 v 7.83 h 5.85 v -7.29 c 0,-2.25 -0.36,-4.14 -1.17,-5.49 -0.72,-1.26 -2.07,-2.43 -3.87,-3.33 l -1.08,2.25 m 265.05,7.74 c -1.08,1.53 -1.62,3.69 -1.62,6.48 v 33.21 h 5.22 v -32.13 c 0,-2.07 0.36,-3.51 0.99,-4.41 0.63,-0.9 1.62,-1.35 2.97,-1.35 2.34,0 4.77,1.35 7.29,4.05 v 33.84 h 5.22 v -41.4 h -5.22 v 4.59 c -3.06,-3.42 -6.39,-5.22 -10.08,-5.22 -2.07,0 -3.69,0.81 -4.77,2.34 m -47.7,1.35 c -1.8,2.43 -2.61,6.57 -2.61,12.51 v 10.44 c 0,4.05 0.36,7.2 1.17,9.54 0.9,2.43 2.07,4.05 3.69,5.04 1.53,0.9 3.69,1.44 6.3,1.44 1.71,0 3.24,-0.27 4.5,-0.72 1.17,-0.45 2.25,-1.08 3.06,-1.98 0.81,-0.81 1.44,-1.89 1.89,-3.33 0.54,-1.44 0.81,-3.06 0.99,-4.77 0.27,-1.71 0.36,-3.87 0.36,-6.3 l -0.09,-3.69 h -16.65 v -6.21 c 0,-4.23 0.36,-7.29 1.17,-9.09 0.9,-1.71 2.43,-2.61 4.68,-2.61 1.8,0 3.24,0.54 4.23,1.71 0.99,1.17 1.44,3.24 1.44,6.3 v 2.79 h 5.13 v -2.25 c 0,-4.05 -0.81,-7.11 -2.52,-9.27 -1.62,-2.16 -4.41,-3.24 -8.19,-3.24 -3.96,0 -6.84,1.17 -8.55,3.69 m 3.87,32.76 c -0.81,-1.62 -1.26,-4.5 -1.26,-8.82 v -2.79 h 11.52 v 3.42 c 0,1.44 0,2.61 -0.09,3.6 -0.09,0.99 -0.18,1.89 -0.45,2.88 -0.18,0.9 -0.54,1.62 -0.9,2.16 l -1.62,1.35 c -0.72,0.27 -1.53,0.45 -2.52,0.45 -2.25,0 -3.78,-0.72 -4.68,-2.25 m -48.06,-35.64 c -1.35,0.54 -2.43,1.35 -3.24,2.16 -0.81,0.9 -1.44,2.16 -1.89,3.6 -0.45,1.44 -0.72,2.97 -0.9,4.41 -0.18,1.53 -0.27,3.33 -0.27,5.31 v 9.72 c 0,2.97 0.18,5.49 0.54,7.47 0.36,1.98 0.9,3.69 1.71,5.13 0.81,1.35 1.98,2.43 3.42,3.06 1.44,0.63 3.24,0.99 5.4,0.99 1.71,0 3.24,-0.27 4.5,-0.63 1.26,-0.45 2.25,-0.99 3.06,-1.8 0.72,-0.72 1.35,-1.62 1.8,-2.79 0.45,-1.17 0.81,-2.34 0.99,-3.6 0.18,-1.26 0.27,-2.79 0.27,-4.41 v -1.98 h -4.86 v 1.98 c 0,3.51 -0.45,5.94 -1.26,7.29 -0.9,1.35 -2.34,1.98 -4.41,1.98 -2.43,0 -3.96,-0.81 -4.77,-2.52 -0.72,-1.71 -1.08,-4.77 -1.08,-9.36 v -11.61 c 0,-4.23 0.36,-7.11 1.17,-8.82 0.9,-1.62 2.43,-2.43 4.68,-2.43 0.99,0 1.8,0.09 2.52,0.36 l 1.62,1.17 0.9,2.07 c 0.27,0.81 0.45,1.71 0.54,2.7 0,0.99 0.09,2.16 0.09,3.69 v 2.25 h 4.86 v -2.07 c 0,-1.8 -0.09,-3.33 -0.27,-4.68 -0.18,-1.35 -0.45,-2.61 -0.9,-3.87 -0.45,-1.26 -1.08,-2.25 -1.8,-3.06 -0.81,-0.72 -1.8,-1.35 -3.06,-1.8 -1.26,-0.45 -2.79,-0.72 -4.59,-0.72 -1.89,0 -3.42,0.27 -4.77,0.81 m -31.86,2.88 c -1.8,2.43 -2.61,6.57 -2.61,12.51 v 10.44 c 0,4.05 0.36,7.2 1.17,9.54 0.9,2.43 2.07,4.05 3.69,5.04 1.53,0.9 3.69,1.44 6.3,1.44 1.8,0 3.24,-0.27 4.5,-0.72 1.17,-0.45 2.25,-1.08 3.06,-1.98 0.81,-0.81 1.44,-1.89 1.89,-3.33 0.54,-1.44 0.81,-3.06 0.99,-4.77 0.27,-1.71 0.36,-3.87 0.36,-6.3 l -0.09,-3.69 h -16.65 v -6.21 c 0,-4.23 0.36,-7.29 1.26,-9.09 0.81,-1.71 2.34,-2.61 4.59,-2.61 1.89,0 3.24,0.54 4.23,1.71 0.99,1.17 1.44,3.24 1.44,6.3 v 2.79 h 5.13 v -2.25 c 0,-4.05 -0.81,-7.11 -2.52,-9.27 -1.62,-2.16 -4.41,-3.24 -8.19,-3.24 -3.96,0 -6.84,1.17 -8.55,3.69 m 3.87,32.76 c -0.81,-1.62 -1.26,-4.5 -1.26,-8.82 v -2.79 h 11.52 v 3.42 c 0,1.44 0,2.61 -0.09,3.6 -0.09,0.99 -0.18,1.89 -0.45,2.88 -0.18,0.9 -0.54,1.62 -0.9,2.16 l -1.62,1.35 c -0.72,0.27 -1.53,0.45 -2.52,0.45 -2.25,0 -3.78,-0.72 -4.68,-2.25 m -30.06,-33.3 c -1.98,2.16 -3.15,5.04 -3.42,8.64 l 4.41,1.26 c 0.27,-3.15 0.99,-5.4 2.16,-6.93 1.17,-1.44 2.79,-2.16 4.86,-2.16 1.89,0 3.24,0.54 4.32,1.62 0.99,0.99 1.53,2.34 1.53,4.05 v 0.27 c -0.09,2.79 -1.8,5.49 -5.04,8.28 l -5.67,4.77 c -1.98,1.62 -3.42,3.24 -4.32,4.86 -0.9,1.53 -1.26,3.33 -1.26,5.4 0,2.97 0.9,5.31 2.7,6.93 1.71,1.71 4.14,2.52 7.11,2.52 3.06,0 5.4,-0.99 7.11,-2.97 1.62,-1.98 2.52,-4.59 2.7,-7.92 l -3.69,-1.26 c -0.18,2.79 -0.72,4.86 -1.71,6.21 -0.99,1.35 -2.34,1.98 -4.14,1.98 -1.62,0 -2.97,-0.45 -3.96,-1.35 -0.9,-0.9 -1.44,-2.07 -1.44,-3.6 0,-1.35 0.27,-2.43 0.72,-3.42 0.54,-0.99 1.44,-1.98 2.7,-3.15 l 5.85,-5.22 c 1.08,-0.9 1.89,-1.71 2.61,-2.43 0.63,-0.63 1.35,-1.53 2.07,-2.52 0.72,-0.99 1.35,-2.07 1.71,-3.24 0.36,-1.17 0.54,-2.52 0.54,-3.87 0,-3.15 -0.99,-5.58 -2.88,-7.29 -1.89,-1.71 -4.5,-2.61 -7.74,-2.61 -3.24,0 -5.94,1.08 -7.83,3.15 m -54.45,-2.16 c -1.44,0.72 -2.61,1.71 -3.42,3.06 -0.81,1.44 -1.44,2.97 -1.71,4.86 -0.36,1.89 -0.54,4.05 -0.54,6.66 v 11.52 c 0,5.22 0.81,9.09 2.43,11.7 1.62,2.52 4.5,3.87 8.55,3.87 4.14,0 7.02,-1.35 8.64,-3.87 1.62,-2.52 2.43,-6.48 2.43,-11.7 v -11.52 c 0,-2.61 -0.18,-4.77 -0.54,-6.66 -0.36,-1.89 -0.9,-3.42 -1.8,-4.86 -0.81,-1.35 -1.89,-2.34 -3.33,-3.06 -1.44,-0.63 -3.24,-0.99 -5.4,-0.99 -2.07,0 -3.87,0.36 -5.31,0.99 m 3.06,37.35 -1.62,-1.08 -0.99,-1.71 c -0.27,-0.63 -0.45,-1.35 -0.63,-2.34 -0.09,-0.9 -0.18,-1.8 -0.27,-2.7 0,-0.81 0,-1.89 0,-3.15 V 2659 c 0,-1.26 0,-2.34 0,-3.15 0.09,-0.9 0.18,-1.8 0.27,-2.7 0.18,-0.99 0.36,-1.8 0.63,-2.34 l 0.99,-1.71 1.62,-1.08 2.25,-0.36 c 1.08,0 1.98,0.18 2.7,0.54 l 1.71,1.44 c 0.36,0.63 0.72,1.44 0.9,2.52 0.18,1.08 0.36,2.07 0.36,3.06 0.09,0.99 0.09,2.25 0.09,3.78 v 12.06 c 0,1.53 0,2.79 -0.09,3.78 0,0.99 -0.18,1.98 -0.36,3.06 -0.18,1.08 -0.54,1.89 -0.9,2.52 l -1.71,1.44 c -0.72,0.36 -1.62,0.54 -2.7,0.54 l -2.25,-0.36 m -30.33,-37.53 c -1.35,0.54 -2.43,1.35 -3.24,2.16 -0.81,0.9 -1.35,2.16 -1.89,3.6 -0.45,1.44 -0.72,2.97 -0.9,4.41 -0.09,1.53 -0.18,3.33 -0.18,5.31 v 9.72 c 0,2.97 0.18,5.49 0.45,7.47 0.36,1.98 0.9,3.69 1.8,5.13 0.81,1.35 1.89,2.43 3.33,3.06 1.44,0.63 3.24,0.99 5.4,0.99 1.8,0 3.24,-0.27 4.5,-0.63 1.26,-0.45 2.25,-0.99 3.06,-1.8 0.81,-0.72 1.44,-1.62 1.89,-2.79 0.45,-1.17 0.72,-2.34 0.9,-3.6 0.18,-1.26 0.27,-2.79 0.27,-4.41 v -1.98 h -4.86 v 1.98 c 0,3.51 -0.45,5.94 -1.26,7.29 -0.81,1.35 -2.25,1.98 -4.41,1.98 -2.34,0 -3.96,-0.81 -4.68,-2.52 -0.81,-1.71 -1.17,-4.77 -1.17,-9.36 v -11.61 c 0,-4.23 0.45,-7.11 1.26,-8.82 0.81,-1.62 2.34,-2.43 4.68,-2.43 0.9,0 1.8,0.09 2.43,0.36 l 1.62,1.17 0.99,2.07 c 0.18,0.81 0.36,1.71 0.45,2.7 0.09,0.99 0.09,2.16 0.09,3.69 v 2.25 h 4.86 v -2.07 c 0,-1.8 -0.09,-3.33 -0.27,-4.68 -0.09,-1.35 -0.45,-2.61 -0.9,-3.87 -0.45,-1.26 -0.99,-2.25 -1.8,-3.06 -0.72,-0.72 -1.71,-1.35 -3.06,-1.8 -1.26,-0.45 -2.79,-0.72 -4.5,-0.72 -1.89,0 -3.51,0.27 -4.86,0.81 m -79.38,2.88 c -1.71,2.43 -2.61,6.57 -2.61,12.51 v 10.44 c 0,4.05 0.45,7.2 1.26,9.54 0.81,2.43 1.98,4.05 3.6,5.04 1.62,0.9 3.69,1.44 6.39,1.44 1.71,0 3.24,-0.27 4.41,-0.72 1.26,-0.45 2.25,-1.08 3.06,-1.98 0.81,-0.81 1.53,-1.89 1.98,-3.33 0.45,-1.44 0.81,-3.06 0.99,-4.77 0.18,-1.71 0.27,-3.87 0.27,-6.3 v -3.69 h -16.74 v -6.21 c 0,-4.23 0.45,-7.29 1.26,-9.09 0.81,-1.71 2.34,-2.61 4.68,-2.61 1.8,0 3.15,0.54 4.14,1.71 0.99,1.17 1.53,3.24 1.53,6.3 v 2.79 h 5.13 v -2.25 c 0,-4.05 -0.9,-7.11 -2.52,-9.27 -1.71,-2.16 -4.41,-3.24 -8.28,-3.24 -3.96,0 -6.75,1.17 -8.55,3.69 m 3.96,32.76 c -0.9,-1.62 -1.35,-4.5 -1.35,-8.82 v -2.79 h 11.61 v 3.42 c 0,1.44 -0.09,2.61 -0.18,3.6 0,0.99 -0.18,1.89 -0.36,2.88 -0.27,0.9 -0.54,1.62 -0.99,2.16 l -1.62,1.35 c -0.72,0.27 -1.53,0.45 -2.52,0.45 -2.16,0 -3.78,-0.72 -4.59,-2.25 m -79.02,-33.75 c -1.62,1.71 -2.34,3.96 -2.34,6.57 0,1.35 0.09,2.61 0.36,3.69 0.18,1.08 0.63,2.07 1.26,3.06 0.63,0.99 1.35,1.8 2.07,2.52 0.81,0.72 1.89,1.53 3.24,2.34 1.44,0.81 2.79,1.62 4.23,2.34 1.35,0.63 3.24,1.53 5.49,2.52 v 2.97 c 0,3.78 -0.36,6.39 -1.08,7.83 -0.72,1.44 -2.07,2.16 -4.05,2.16 -3.87,0 -5.76,-2.43 -5.76,-7.11 v -1.53 l -5.13,0.18 v 1.26 c 0.18,3.87 1.17,6.75 3.06,8.46 1.89,1.8 4.59,2.7 8.1,2.7 3.6,0 6.21,-1.08 7.74,-3.24 1.53,-2.25 2.34,-5.67 2.34,-10.44 v -20.16 c 0,-3.33 0.09,-6.03 0.36,-8.19 h -4.59 l -0.81,5.76 c -0.63,-1.8 -1.71,-3.33 -3.15,-4.59 -1.53,-1.17 -3.33,-1.8 -5.4,-1.8 -2.43,0 -4.41,0.9 -5.94,2.7 m 13.59,19.26 c -1.08,-0.63 -1.98,-1.08 -2.61,-1.44 l -2.16,-1.26 -1.89,-1.17 -1.44,-1.17 -1.17,-1.35 -0.81,-1.44 -0.54,-1.62 -0.09,-1.98 c 0,-2.07 0.45,-3.6 1.35,-4.59 0.9,-0.99 2.07,-1.44 3.42,-1.44 1.44,0 2.7,0.45 3.87,1.44 1.17,0.99 2.07,2.16 2.79,3.42 v 12.87 l -0.72,-0.27 m -88.38,-18.81 c -1.98,2.16 -3.06,5.04 -3.33,8.64 l 4.41,1.26 c 0.27,-3.15 0.99,-5.4 2.16,-6.93 1.17,-1.44 2.79,-2.16 4.86,-2.16 1.8,0 3.24,0.54 4.32,1.62 0.99,0.99 1.53,2.34 1.53,4.05 v 0.27 c -0.09,2.79 -1.8,5.49 -5.04,8.28 l -5.67,4.77 c -1.98,1.62 -3.42,3.24 -4.32,4.86 -0.9,1.53 -1.35,3.33 -1.35,5.4 0,2.97 0.9,5.31 2.79,6.93 1.71,1.71 4.14,2.52 7.11,2.52 3.06,0 5.4,-0.99 7.02,-2.97 1.71,-1.98 2.61,-4.59 2.79,-7.92 l -3.69,-1.26 c -0.18,2.79 -0.72,4.86 -1.71,6.21 -0.99,1.35 -2.34,1.98 -4.23,1.98 -1.62,0 -2.88,-0.45 -3.87,-1.35 -0.99,-0.9 -1.44,-2.07 -1.44,-3.6 0,-1.35 0.27,-2.43 0.72,-3.42 0.54,-0.99 1.44,-1.98 2.7,-3.15 l 5.85,-5.22 c 1.08,-0.9 1.89,-1.71 2.52,-2.43 0.72,-0.63 1.44,-1.53 2.16,-2.52 0.72,-0.99 1.26,-2.07 1.62,-3.24 0.36,-1.17 0.54,-2.52 0.63,-3.87 0,-3.15 -0.99,-5.58 -2.88,-7.29 -1.89,-1.71 -4.5,-2.61 -7.74,-2.61 -3.33,0 -5.94,1.08 -7.92,3.15 m -61.02,-2.16 c -1.44,0.72 -2.61,1.71 -3.42,3.06 -0.81,1.44 -1.44,2.97 -1.71,4.86 -0.36,1.89 -0.54,4.05 -0.54,6.66 v 11.52 c 0,5.22 0.81,9.09 2.43,11.7 1.62,2.52 4.5,3.87 8.55,3.87 4.14,0 7.02,-1.35 8.64,-3.87 1.62,-2.52 2.43,-6.48 2.43,-11.7 v -11.52 c 0,-2.61 -0.18,-4.77 -0.54,-6.66 -0.36,-1.89 -0.9,-3.42 -1.71,-4.86 -0.9,-1.35 -1.98,-2.34 -3.42,-3.06 -1.44,-0.63 -3.24,-0.99 -5.4,-0.99 -2.07,0 -3.87,0.36 -5.31,0.99 m 3.06,37.35 -1.62,-1.08 -0.99,-1.71 c -0.27,-0.63 -0.45,-1.35 -0.63,-2.34 -0.09,-0.9 -0.18,-1.8 -0.18,-2.7 -0.09,-0.81 -0.09,-1.89 -0.09,-3.15 V 2659 c 0,-1.26 0,-2.34 0.09,-3.15 0,-0.9 0.09,-1.8 0.18,-2.7 0.18,-0.99 0.36,-1.8 0.63,-2.34 l 0.99,-1.71 1.62,-1.08 2.25,-0.36 c 1.08,0 1.98,0.18 2.7,0.54 l 1.71,1.44 c 0.36,0.63 0.72,1.44 0.9,2.52 0.18,1.08 0.36,2.07 0.36,3.06 0.09,0.99 0.09,2.25 0.09,3.78 v 12.06 c 0,1.53 0,2.79 -0.09,3.78 0,0.99 -0.18,1.98 -0.36,3.06 -0.18,1.08 -0.54,1.89 -0.9,2.52 l -1.71,1.44 c -0.72,0.36 -1.62,0.54 -2.7,0.54 l -2.25,-0.36 m -45.99,-37.35 c -1.442,0.72 -2.61,1.71 -3.418,3.06 -0.813,1.44 -1.442,2.97 -1.801,4.86 -0.27,1.89 -0.449,4.05 -0.449,6.66 v 11.52 c 0,5.22 0.808,9.09 2.429,11.7 1.618,2.52 4.5,3.87 8.547,3.87 4.142,0 7.022,-1.35 8.642,-3.87 1.62,-2.52 2.43,-6.48 2.43,-11.7 v -11.52 c 0,-2.61 -0.18,-4.77 -0.54,-6.66 -0.36,-1.89 -0.9,-3.42 -1.8,-4.86 -0.81,-1.35 -1.89,-2.34 -3.33,-3.06 -1.44,-0.63 -3.24,-0.99 -5.402,-0.99 -2.066,0 -3.867,0.36 -5.308,0.99 m 3.058,37.35 -1.617,-1.08 -1.082,-1.71 c -0.18,-0.63 -0.449,-1.35 -0.539,-2.34 -0.09,-0.9 -0.18,-1.8 -0.27,-2.7 0,-0.81 0,-1.89 0,-3.15 V 2659 c 0,-1.26 0,-2.34 0,-3.15 0.09,-0.9 0.18,-1.8 0.27,-2.7 0.09,-0.99 0.359,-1.8 0.539,-2.34 l 1.082,-1.71 1.617,-1.08 2.25,-0.36 c 1.082,0 1.982,0.18 2.702,0.54 l 1.71,1.44 c 0.36,0.63 0.63,1.44 0.9,2.52 0.18,1.08 0.36,2.07 0.36,3.06 0.09,0.99 0.09,2.25 0.09,3.78 v 12.06 c 0,1.53 0,2.79 -0.09,3.78 0,0.99 -0.18,1.98 -0.36,3.06 -0.27,1.08 -0.54,1.89 -0.9,2.52 l -1.71,1.44 c -0.72,0.36 -1.62,0.54 -2.702,0.54 l -2.25,-0.36 m -35.91,-34.29 c -1.617,2.61 -2.34,7.11 -2.34,13.32 v 7.65 c 0,2.25 0.09,4.23 0.274,5.94 0.09,1.8 0.449,3.42 0.898,4.86 0.36,1.53 0.988,2.79 1.711,3.69 0.719,0.99 1.617,1.71 2.789,2.25 1.168,0.54 2.52,0.9 4.051,0.9 2.699,-0.09 5.129,-1.26 7.289,-3.6 v 19.53 h 5.219 v -57.96 H 976.5 v 2.97 c -2.07,-2.43 -4.41,-3.6 -7.02,-3.6 -3.601,0 -6.121,1.35 -7.652,4.05 m 4.051,31.68 c -0.809,-1.89 -1.168,-4.86 -1.168,-9.09 v -9.72 c 0,-4.5 0.359,-7.74 1.168,-9.81 0.812,-1.98 2.34,-2.97 4.59,-2.97 2.07,0 4.051,0.9 6.031,2.7 v 28.71 c -2.07,1.98 -4.141,2.97 -6.121,2.97 -2.25,0 -3.688,-0.9 -4.5,-2.79 m -94.41,-33.39 c -1.078,1.53 -1.617,3.69 -1.617,6.48 v 33.21 h 5.308 v -32.13 c 0,-2.07 0.27,-3.51 0.899,-4.41 0.632,-0.9 1.621,-1.35 2.972,-1.35 2.34,0 4.77,1.35 7.289,4.05 v 33.84 h 5.309 v -41.4 h -5.309 v 4.59 c -3.058,-3.42 -6.39,-5.22 -10.082,-5.22 -2.066,0 -3.687,0.81 -4.769,2.34 m -25.649,0.81 c -1.98,2.16 -3.058,5.04 -3.422,8.64 l 4.411,1.26 c 0.269,-3.15 0.992,-5.4 2.16,-6.93 1.172,-1.44 2.793,-2.16 4.953,-2.16 1.797,0 3.238,0.54 4.226,1.62 0.993,0.99 1.532,2.34 1.532,4.05 v 0.27 c -0.09,2.79 -1.711,5.49 -5.039,8.28 l -5.582,4.77 c -1.981,1.62 -3.418,3.24 -4.321,4.86 -0.898,1.53 -1.347,3.33 -1.347,5.4 0,2.97 0.898,5.31 2.699,6.93 1.801,1.71 4.14,2.52 7.199,2.52 3.063,0 5.402,-0.99 7.02,-2.97 1.621,-1.98 2.519,-4.59 2.703,-7.92 l -3.692,-1.26 c -0.179,2.79 -0.718,4.86 -1.711,6.21 -0.898,1.35 -2.339,1.98 -4.14,1.98 -1.617,0 -2.969,-0.45 -3.867,-1.35 -0.993,-0.9 -1.442,-2.07 -1.442,-3.6 0,-1.35 0.18,-2.43 0.719,-3.42 0.449,-0.99 1.351,-1.98 2.699,-3.15 l 5.762,-5.22 c 1.082,-0.9 1.98,-1.71 2.609,-2.43 0.629,-0.63 1.352,-1.53 2.071,-2.52 0.808,-0.99 1.351,-2.07 1.71,-3.24 0.36,-1.17 0.54,-2.52 0.54,-3.87 0,-3.15 -0.899,-5.58 -2.879,-7.29 -1.891,-1.71 -4.411,-2.61 -7.743,-2.61 -3.238,0 -5.847,1.08 -7.828,3.15 m -133.109,0.54 c -1.711,2.43 -2.609,6.57 -2.609,12.51 v 10.44 c 0,4.05 0.449,7.2 1.257,9.54 0.813,2.43 2.071,4.05 3.602,5.04 1.617,0.9 3.687,1.44 6.391,1.44 1.707,0 3.238,-0.27 4.41,-0.72 1.258,-0.45 2.25,-1.08 3.058,-1.98 0.809,-0.81 1.532,-1.89 1.981,-3.33 0.449,-1.44 0.808,-3.06 0.988,-4.77 0.18,-1.71 0.27,-3.87 0.27,-6.3 v -3.69 H 715.32 v -6.21 c 0,-4.23 0.45,-7.29 1.258,-9.09 0.813,-1.71 2.434,-2.61 4.684,-2.61 1.797,0 3.238,0.54 4.136,1.71 0.993,1.17 1.532,3.24 1.532,6.3 v 2.79 h 5.129 v -2.25 c 0,-4.05 -0.899,-7.11 -2.52,-9.27 -1.711,-2.16 -4.41,-3.24 -8.277,-3.24 -3.961,0 -6.75,1.17 -8.551,3.69 m 3.961,32.76 c -0.902,-1.62 -1.352,-4.5 -1.352,-8.82 v -2.79 h 11.61 v 3.42 c 0,1.44 -0.09,2.61 -0.09,3.6 -0.09,0.99 -0.27,1.89 -0.449,2.88 -0.27,0.9 -0.539,1.62 -0.993,2.16 l -1.617,1.35 c -0.722,0.27 -1.531,0.45 -2.519,0.45 -2.16,0 -3.692,-0.72 -4.59,-2.25 M 666,2644.69 c -1.441,0.72 -2.609,1.71 -3.422,3.06 -0.808,1.44 -1.348,2.97 -1.707,4.86 -0.359,1.89 -0.543,4.05 -0.543,6.66 v 11.52 c 0,5.22 0.813,9.09 2.434,11.7 1.617,2.52 4.5,3.87 8.547,3.87 4.14,0 7.019,-1.35 8.64,-3.87 1.621,-2.52 2.43,-6.48 2.43,-11.7 v -11.52 c 0,-2.61 -0.18,-4.77 -0.539,-6.66 -0.36,-1.89 -0.899,-3.42 -1.711,-4.86 -0.899,-1.35 -1.981,-2.34 -3.418,-3.06 -1.441,-0.63 -3.242,-0.99 -5.402,-0.99 -2.071,0 -3.868,0.36 -5.309,0.99 m 3.059,37.35 -1.618,-1.08 -0.992,-1.71 c -0.269,-0.63 -0.449,-1.35 -0.629,-2.34 -0.09,-0.9 -0.179,-1.8 -0.179,-2.7 -0.09,-0.81 -0.09,-1.89 -0.09,-3.15 V 2659 c 0,-1.26 0,-2.34 0.09,-3.15 0,-0.9 0.089,-1.8 0.179,-2.7 0.18,-0.99 0.36,-1.8 0.629,-2.34 l 0.992,-1.71 1.618,-1.08 2.25,-0.36 c 1.082,0 1.98,0.18 2.703,0.54 l 1.707,1.44 c 0.359,0.63 0.722,1.44 0.902,2.52 0.18,1.08 0.359,2.07 0.449,3.06 0,0.99 0,2.25 0,3.78 v 12.06 c 0,1.53 0,2.79 0,3.78 -0.09,0.99 -0.269,1.98 -0.449,3.06 -0.18,1.08 -0.543,1.89 -0.902,2.52 l -1.707,1.44 c -0.723,0.36 -1.621,0.54 -2.703,0.54 l -2.25,-0.36 m 873.091,-35.91 c -1.08,1.62 -1.62,3.87 -1.62,6.84 v 29.25 h -5.04 v 3.51 h 5.04 v 12.78 h 5.22 v -12.78 h 6.93 v -3.51 h -6.93 v -28.8 c 0,-2.07 0.27,-3.51 0.72,-4.32 0.54,-0.72 1.53,-1.17 2.97,-1.17 0.99,0 1.98,0.09 2.97,0.27 v -3.87 c -1.62,-0.36 -3.06,-0.54 -4.41,-0.54 -2.79,0 -4.77,0.81 -5.85,2.34 m -48.24,0 c -1.08,1.62 -1.62,3.87 -1.62,6.84 v 29.25 h -5.04 v 3.51 h 5.04 v 12.78 h 5.22 v -12.78 h 6.84 v -3.51 h -6.84 v -28.8 c 0,-2.07 0.27,-3.51 0.72,-4.32 0.54,-0.72 1.53,-1.17 2.97,-1.17 0.99,0 1.98,0.09 2.97,0.27 v -3.87 c -1.62,-0.36 -3.06,-0.54 -4.41,-0.54 -2.79,0 -4.77,0.81 -5.85,2.34 m -215.01,0 c -1.08,1.62 -1.62,3.87 -1.71,6.84 v 29.25 h -4.95 v 3.51 h 4.95 v 12.78 h 5.31 v -12.78 h 6.84 v -3.51 h -6.84 v -28.8 c 0,-2.07 0.18,-3.51 0.72,-4.32 0.45,-0.72 1.44,-1.17 2.97,-1.17 0.9,0 1.89,0.09 2.88,0.27 v -3.87 c -1.53,-0.36 -2.97,-0.54 -4.41,-0.54 -2.79,0 -4.68,0.81 -5.76,2.34 m -137.34,0 c -1.08,1.62 -1.62,3.87 -1.62,6.84 v 29.25 h -4.95 v 3.51 h 4.95 v 12.78 h 5.22 v -12.78 h 6.93 v -3.51 h -6.93 v -28.8 c 0,-2.07 0.27,-3.51 0.72,-4.32 0.54,-0.72 1.53,-1.17 2.97,-1.17 0.99,0 1.98,0.09 2.97,0.27 v -3.87 c -1.53,-0.36 -3.06,-0.54 -4.41,-0.54 -2.79,0 -4.77,0.81 -5.85,2.34 m 446.49,-1.8 v 41.4 h 5.22 v -5.76 c 1.26,2.16 2.7,3.69 4.41,4.68 1.71,0.99 3.42,1.53 5.13,1.53 l 0.9,-0.09 v -5.67 c -0.72,0.36 -1.62,0.45 -2.52,0.45 -3.33,0 -5.94,-1.53 -7.92,-4.77 v -31.77 h -5.22 m -193.05,0 v 32.04 c 0,2.16 -0.36,3.6 -0.99,4.5 -0.63,0.9 -1.62,1.35 -2.97,1.35 -2.25,0 -4.59,-1.26 -7.11,-3.78 v -34.11 h -5.22 v 41.4 h 5.22 v -4.32 c 3.06,3.24 6.39,4.95 9.99,4.95 1.98,0 3.6,-0.81 4.68,-2.34 1.08,-1.53 1.62,-3.69 1.62,-6.48 v -33.21 H 1395 m -161.01,0 v 32.49 c 0,2.25 -0.36,3.87 -0.99,4.68 -0.72,0.9 -1.71,1.35 -3.06,1.35 -2.61,0 -5.22,-1.44 -7.74,-4.32 v -1.53 -32.67 h -4.86 v 32.49 c 0,2.25 -0.36,3.87 -1.08,4.68 -0.72,0.9 -1.71,1.35 -3.06,1.35 -2.61,0 -5.13,-1.44 -7.65,-4.32 v -34.2 h -4.95 v 41.4 h 4.95 v -4.23 c 2.7,3.33 5.94,4.95 9.72,4.95 3.42,0 5.58,-1.8 6.48,-5.49 2.88,3.69 6.3,5.49 10.17,5.49 2.07,0 3.78,-0.81 5.04,-2.25 1.35,-1.44 1.98,-3.87 1.98,-7.2 v -32.67 h -4.95 m -110.34,0 v 41.4 h 5.22 v -41.4 h -5.22 m -62.01,0 v 41.4 h 5.22 v -5.76 c 1.26,2.16 2.7,3.69 4.41,4.68 1.71,0.99 3.33,1.53 5.13,1.53 l 0.9,-0.09 v -5.67 c -0.81,0.36 -1.62,0.45 -2.52,0.45 -3.33,0 -6.03,-1.53 -7.92,-4.77 v -31.77 h -5.22 m -42.66,0 v 57.96 h 5.22 v -57.96 h -5.22 m -85.949,0 v 32.49 c 0,2.25 -0.359,3.87 -1.082,4.68 -0.719,0.9 -1.711,1.35 -2.969,1.35 -2.609,0 -5.218,-1.44 -7.832,-4.32 l 0.09,-1.53 v -32.67 h -4.859 v 32.49 c 0,2.25 -0.359,3.87 -1.078,4.68 -0.723,0.9 -1.801,1.35 -3.063,1.35 -2.609,0 -5.218,-1.44 -7.738,-4.32 v -34.2 h -4.949 v 41.4 h 4.949 v -4.23 c 2.789,3.33 6.031,4.95 9.719,4.95 3.511,0 5.672,-1.8 6.57,-5.49 2.883,3.69 6.211,5.49 10.172,5.49 2.07,0 3.687,-0.81 5.039,-2.25 1.352,-1.44 1.98,-3.87 1.98,-7.2 v -32.67 h -4.949 m -132.66,0 v 41.4 h 5.219 v -41.4 h -5.219 m -27.812,0 v 32.49 c 0,2.25 -0.36,3.87 -1.079,4.68 -0.718,0.9 -1.71,1.35 -2.968,1.35 -2.614,0 -5.223,-1.44 -7.832,-4.32 l 0.09,-1.53 v -32.67 h -4.86 v 32.49 c 0,2.25 -0.359,3.87 -1.082,4.68 -0.719,0.9 -1.797,1.35 -3.058,1.35 -2.61,0 -5.219,-1.44 -7.739,-4.32 v -34.2 h -4.859 v 41.4 h 4.859 v -4.23 c 2.789,3.33 6.028,4.95 9.719,4.95 3.512,0 5.672,-1.8 6.57,-5.49 2.879,3.69 6.211,5.49 10.168,5.49 2.071,0 3.692,-0.81 5.043,-2.25 1.348,-1.44 1.981,-3.87 1.981,-7.2 v -32.67 h -4.953 m -82.528,0 v 41.4 h 5.219 v -5.76 c 1.262,2.16 2.699,3.69 4.41,4.68 1.711,0.99 3.418,1.53 5.129,1.53 l 0.902,-0.09 v -5.67 c -0.722,0.36 -1.621,0.45 -2.519,0.45 -3.332,0 -6.031,-1.53 -7.922,-4.77 v -31.77 h -5.219 m -55.261,0 v 57.96 h 5.492 v -53.82 h 16.468 v -4.14 h -21.96 m 488.88,47.07 v 7.11 h 5.22 v -7.11 h -5.22 m -323.279,0 v 7.11 h 5.219 v -7.11 h -5.219"
         clip-rule="evenodd"
         id="path1257" /></clipPath></defs><g
     id="g841"
     transform="matrix(1.3333333,0,0,-1.3333333,0,533.33333)"><g
       id="g843"
       transform="scale(0.1)"><path
         d="m 1181.4546,2073.6117 527.99,301.06 c 19.31,11.15 16.89,30.62 -5.41,43.49 l -303.79,175.4 c -22.29,12.87 -56.02,14.27 -75.33,3.12 l -527.98993,-301.07 c -19.31,-11.14 -16.89,-30.61 5.41,-43.48 l 303.78993,-175.4 c 22.3,-12.88 56.02,-14.27 75.33,-3.12"
         style="fill:#d9effb;fill-opacity:1;fill-rule:nonzero;stroke:none"
         id="path845" /><path
         d="m 749.84467,2396.9617 v 1232.63 l 490.01993,128.25 90.27,52.11 c 20.71,11.96 56.89,10.46 80.82,-3.35 l 84.2,-48.62 261.37,0.14 -77.4,-1189.92 c 0.6,-8.09 -3.92,-15.9 -13.88,-21.65 l -489.01,-368.98 c -20.71,-11.96 -56.9,-10.46 -80.81,3.35 l -325.89993,188.15 c -13.8,7.97 -20.45,18.29 -19.68,27.89"
         style="fill:#4067b1;fill-opacity:1;fill-rule:nonzero;stroke:none"
         id="path847" /><path
         d="m 1367.6346,3817.9617 c 15.15,-0.36 30.89,-4.19 43.32,-11.36 l 84.2,-48.62 261.37,0.14 v -1235.93 c 0.59,-8.09 -3.92,-15.9 -13.88,-21.66 l -566.41,-322.96 c -9.95,-5.75 -23.49,-8.35 -37.5,-8.01 l -5.84,1243.65 234.74,404.75"
         style="fill:#d9effb;fill-opacity:1;fill-rule:nonzero;stroke:none"
         id="path849" /><path
         d="m 1171.0346,2175.0217 c -17.87,-7.65 -43.71,-7.23 -64.59,0.74 v 1252.15 h 64.59 v -1252.89"
         style="fill:#5f92d3;fill-opacity:1;fill-rule:nonzero;stroke:none"
         id="path851" /><path
         d="m 1176.2346,3413.0617 566.41,322.98 c 20.72,11.96 18.12,32.84 -5.8,46.66 l -325.89,188.16 c -23.93,13.81 -60.11,15.3 -80.82,3.34 l -566.40993,-322.96 c -20.72,-11.97 -18.12,-32.85 5.8,-46.66 l 325.89993,-188.16 c 23.92,-13.82 60.1,-15.31 80.81,-3.36"
         style="fill:#d9effb;fill-opacity:1;fill-rule:nonzero;stroke:none"
         id="path853" /><path
         d="m 769.52467,3627.4917 325.89993,-188.16 c 23.92,-13.81 60.1,-15.3 80.81,-3.35 l 566.41,322.97 c 4.62,2.67 8.01,5.8 10.34,9.17 7.12,-11.44 3.88,-23.86 -10.34,-32.08 l -566.41,-322.97 c -20.71,-11.96 -56.89,-10.47 -80.81,3.35 l -325.89993,188.16 c -18.58,10.73 -24.23,25.72 -16.14,37.49 3.25,-5.23 8.65,-10.25 16.14,-14.58"
         style="fill:#fcfeff;fill-opacity:1;fill-rule:nonzero;stroke:none"
         id="path855" /><path
         d="m 1160.2146,3543.9617 377.1,218.6 c 9.69,5.59 8.48,15.37 -2.71,21.83 l -152.51,88.05 c -11.19,6.46 -28.13,7.17 -37.81,1.57 l -377.09993,-218.59 c -9.7,-5.61 -8.48,-15.38 2.71,-21.84 l 152.49993,-88.05 c 11.19,-6.46 28.13,-7.16 37.82,-1.57"
         style="fill:#263c7a;fill-opacity:1;fill-rule:nonzero;stroke:none"
         id="path857" /><path
         d="m 1363.8046,3752.7417 21.84,12.62 c 1.35,0.77 1.18,2.12 -0.37,3.02 l -21.1,12.18 c -1.54,0.89 -3.89,0.99 -5.23,0.22 l -21.85,-12.62 c -1.34,-0.78 -1.17,-2.13 0.37,-3.03 l 21.1,-12.18 c 1.56,-0.89 3.89,-0.99 5.24,-0.21"
         style="fill:#d9effb;fill-opacity:1;fill-rule:nonzero;stroke:none"
         id="path859" /><path
         d="m 1290.7946,3710.7617 21.86,12.62 c 1.33,0.78 1.17,2.13 -0.38,3.02 l -21.1,12.18 c -1.55,0.9 -3.9,1 -5.23,0.21 l -21.86,-12.61 c -1.34,-0.77 -1.17,-2.12 0.38,-3.02 l 21.1,-12.17 c 1.55,-0.91 3.89,-1 5.23,-0.23"
         style="fill:#d9effb;fill-opacity:1;fill-rule:nonzero;stroke:none"
         id="path861" /><path
         d="m 1217.7946,3668.7917 21.85,12.61 c 1.35,0.77 1.17,2.13 -0.37,3.02 l -21.11,12.19 c -1.54,0.89 -3.88,0.99 -5.22,0.22 l -21.86,-12.63 c -1.33,-0.76 -1.17,-2.12 0.37,-3.01 l 21.11,-12.19 c 1.55,-0.89 3.88,-0.98 5.23,-0.21"
         style="fill:#d9effb;fill-opacity:1;fill-rule:nonzero;stroke:none"
         id="path863" /><path
         d="m 1144.7846,3626.8117 21.86,12.61 c 1.34,0.78 1.17,2.13 -0.38,3.03 l -21.09,12.18 c -1.56,0.89 -3.9,0.99 -5.24,0.21 l -21.85,-12.61 c -1.34,-0.78 -1.18,-2.13 0.38,-3.02 l 21.09,-12.18 c 1.55,-0.9 3.9,-1 5.23,-0.22"
         style="fill:#d9effb;fill-opacity:1;fill-rule:nonzero;stroke:none"
         id="path865" /><path
         d="m 1537.3146,3762.5617 -0.45,-0.26 -2.26,1.56 -152.51,88.05 c -11.19,6.46 -28.13,7.16 -37.81,1.56 l -376.65993,-218.34 c -8.93,6.4 -9.4,15.11 -0.44,20.29 l 377.09993,218.59 c 9.68,5.6 26.62,4.89 37.81,-1.57 l 152.51,-88.05 c 11.19,-6.46 12.4,-16.24 2.71,-21.83"
         style="fill:#5f92d3;fill-opacity:1;fill-rule:nonzero;stroke:none"
         id="path867" /><path
         d="m 1031.7946,3168.8517 -214.40993,122.77 c -12.07,6.96 -21.85,25.65 -21.85,41.74 v 76.68 c 0,16.08 9.78,23.47 21.85,16.51 l 214.40993,-122.76 c 12.06,-6.97 21.84,-25.66 21.84,-41.74 v -76.68 c 0,-16.09 -9.78,-23.48 -21.84,-16.52"
         style="fill:#263c7a;fill-opacity:1;fill-rule:nonzero;stroke:none"
         id="path869" /><path
         d="m 806.77467,3428.8617 c -3.38,-3.18 -5.49,-8.6 -5.49,-15.95 v -76.67 c 0,-16.1 9.78,-34.78 21.85,-41.75 l 214.39993,-122.75 c 3.88,-2.24 7.46,-2.86 10.62,-2.32 -4,-3.78 -9.82,-4.34 -16.36,-0.57 l -214.40993,122.77 c -12.07,6.96 -21.85,25.65 -21.85,41.74 v 76.68 c 0,10.91 4.56,17.68 11.24,18.82"
         style="fill:#ffffff;fill-opacity:1;fill-rule:nonzero;stroke:none"
         id="path871" /><path
         d="m 967.30467,3252.1517 -19.67,11.35 c -2.63,1.53 -4.76,5.6 -4.76,9.1 v 21.01 c 0,3.51 2.13,5.12 4.76,3.6 l 19.67,-11.35 c 2.63,-1.53 4.76,-5.6 4.76,-9.1 v -21.01 c 0,-3.51 -2.13,-5.12 -4.76,-3.6"
         style="fill:#4067b1;fill-opacity:1;fill-rule:nonzero;stroke:none"
         id="path873" /><path
         d="m 901.53467,3290.1117 -19.67,11.36 c -2.63,1.53 -4.76,5.6 -4.76,9.1 v 21.01 c 0,3.51 2.13,5.12 4.76,3.6 l 19.67,-11.35 c 2.63,-1.52 4.76,-5.6 4.76,-9.11 v -21 c 0,-3.51 -2.13,-5.12 -4.76,-3.61"
         style="fill:#ffffff;fill-opacity:1;fill-rule:nonzero;stroke:none"
         id="path875" /><path
         d="m 1031.7946,2614.7917 -214.40993,122.77 c -12.07,6.96 -21.85,25.65 -21.85,41.73 v 76.68 c 0,16.09 9.78,23.48 21.85,16.52 l 214.40993,-122.77 c 12.06,-6.96 21.84,-25.65 21.84,-41.73 v -76.67 c 0,-16.1 -9.78,-23.49 -21.84,-16.53"
         style="fill:#263c7a;fill-opacity:1;fill-rule:nonzero;stroke:none"
         id="path877" /><path
         d="m 806.77467,2874.8017 c -3.38,-3.18 -5.49,-8.6 -5.49,-15.95 v -76.67 c 0,-16.1 9.78,-34.78 21.85,-41.75 l 214.39993,-122.76 c 3.88,-2.23 7.46,-2.85 10.62,-2.31 -4,-3.78 -9.82,-4.35 -16.36,-0.57 l -214.40993,122.77 c -12.07,6.96 -21.85,25.65 -21.85,41.73 v 76.68 c 0,10.92 4.56,17.69 11.24,18.83"
         style="fill:#ffffff;fill-opacity:1;fill-rule:nonzero;stroke:none"
         id="path879" /><path
         d="m 967.30467,2698.0817 -19.67,11.36 c -2.63,1.52 -4.76,5.6 -4.76,9.1 v 21.01 c 0,3.5 2.13,5.12 4.76,3.6 l 19.67,-11.36 c 2.63,-1.51 4.76,-5.59 4.76,-9.1 v -21 c 0,-3.51 -2.13,-5.12 -4.76,-3.61"
         style="fill:#4067b1;fill-opacity:1;fill-rule:nonzero;stroke:none"
         id="path881" /><path
         d="m 901.53467,2736.0617 -19.67,11.35 c -2.63,1.52 -4.76,5.6 -4.76,9.1 v 21.01 c 0,3.5 2.13,5.11 4.76,3.6 l 19.67,-11.36 c 2.63,-1.51 4.76,-5.59 4.76,-9.1 v -21 c 0,-3.51 -2.13,-5.12 -4.76,-3.6"
         style="fill:#ffffff;fill-opacity:1;fill-rule:nonzero;stroke:none"
         id="path883" /><path
         d="m 1031.7946,2337.7617 -214.40993,122.76 c -12.07,6.97 -21.85,25.66 -21.85,41.74 v 76.68 c 0,16.09 9.78,23.48 21.85,16.52 l 214.40993,-122.77 c 12.06,-6.96 21.84,-25.65 21.84,-41.74 v -76.67 c 0,-16.09 -9.78,-23.48 -21.84,-16.52"
         style="fill:#263c7a;fill-opacity:1;fill-rule:nonzero;stroke:none"
         id="path885" /><path
         d="m 806.77467,2597.7717 c -3.38,-3.18 -5.49,-8.6 -5.49,-15.96 v -76.67 c 0,-16.09 9.78,-34.77 21.85,-41.74 l 214.39993,-122.76 c 3.88,-2.23 7.46,-2.85 10.62,-2.31 -4,-3.78 -9.82,-4.35 -16.36,-0.57 l -214.40993,122.76 c -12.07,6.97 -21.85,25.66 -21.85,41.74 v 76.68 c 0,10.92 4.56,17.69 11.24,18.83"
         style="fill:#ffffff;fill-opacity:1;fill-rule:nonzero;stroke:none"
         id="path887" /><path
         d="m 967.30467,2421.0517 -19.67,11.36 c -2.63,1.52 -4.76,5.6 -4.76,9.1 v 21.01 c 0,3.5 2.13,5.11 4.76,3.6 l 19.67,-11.36 c 2.63,-1.51 4.76,-5.59 4.76,-9.1 v -21 c 0,-3.51 -2.13,-5.12 -4.76,-3.61"
         style="fill:#4067b1;fill-opacity:1;fill-rule:nonzero;stroke:none"
         id="path889" /><path
         d="m 901.53467,2459.0317 -19.67,11.35 c -2.63,1.52 -4.76,5.59 -4.76,9.1 v 21.01 c 0,3.5 2.13,5.11 4.76,3.6 l 19.67,-11.36 c 2.63,-1.51 4.76,-5.58 4.76,-9.1 v -21.01 c 0,-3.5 -2.13,-5.11 -4.76,-3.59"
         style="fill:#ffffff;fill-opacity:1;fill-rule:nonzero;stroke:none"
         id="path891" /><path
         d="m 1031.7946,2891.8217 -214.40993,122.77 c -12.07,6.96 -21.85,25.65 -21.85,41.74 v 76.68 c 0,16.08 9.78,23.47 21.85,16.51 l 214.40993,-122.76 c 12.06,-6.97 21.84,-25.66 21.84,-41.74 v -76.67 c 0,-16.1 -9.78,-23.49 -21.84,-16.53"
         style="fill:#263c7a;fill-opacity:1;fill-rule:nonzero;stroke:none"
         id="path893" /><path
         d="m 806.77467,3151.8317 c -3.38,-3.18 -5.49,-8.6 -5.49,-15.95 v -76.67 c 0,-16.1 9.78,-34.78 21.85,-41.75 l 214.39993,-122.76 c 3.88,-2.23 7.46,-2.85 10.62,-2.31 -4,-3.78 -9.82,-4.35 -16.36,-0.57 l -214.40993,122.77 c -12.07,6.96 -21.85,25.65 -21.85,41.74 v 76.68 c 0,10.91 4.56,17.68 11.24,18.82"
         style="fill:#ffffff;fill-opacity:1;fill-rule:nonzero;stroke:none"
         id="path895" /><path
         d="m 967.30467,2975.1117 -19.67,11.36 c -2.63,1.53 -4.76,5.6 -4.76,9.1 v 21.01 c 0,3.51 2.13,5.12 4.76,3.6 l 19.67,-11.35 c 2.63,-1.52 4.76,-5.6 4.76,-9.11 v -21 c 0,-3.51 -2.13,-5.12 -4.76,-3.61"
         style="fill:#4067b1;fill-opacity:1;fill-rule:nonzero;stroke:none"
         id="path897" /><path
         d="m 901.53467,3013.0917 -19.67,11.35 c -2.63,1.52 -4.76,5.6 -4.76,9.1 v 21.01 c 0,3.5 2.13,5.12 4.76,3.6 l 19.67,-11.36 c 2.63,-1.51 4.76,-5.59 4.76,-9.1 v -21 c 0,-3.51 -2.13,-5.12 -4.76,-3.6"
         style="fill:#ffffff;fill-opacity:1;fill-rule:nonzero;stroke:none"
         id="path899" /><path
         d="m 1217.4946,3247.3517 494.66,285.59 c 11.07,6.39 20.05,23.54 20.05,38.3 v 94.32 c 0,14.77 -8.98,21.55 -20.05,15.16 l -494.66,-285.6 c -11.07,-6.38 -20.05,-23.53 -20.05,-38.3 v -94.32 c 0,-14.76 8.98,-21.55 20.05,-15.15"
         style="fill:#5f92d3;fill-opacity:1;fill-rule:nonzero;stroke:none"
         id="path901" /><path
         d="m 1227.6546,3279.2017 c -3.6,0 -6.13,3.33 -6.13,8.91 v 70.91 c 0,7.49 4.55,16.19 10.17,19.43 l 466.26,269.19 c 1.43,0.83 2.8,1.22 4.04,1.22 3.61,0 6.13,-3.33 6.13,-8.9 v -70.91 c 0,-7.49 -4.56,-16.19 -10.17,-19.43 l -466.26,-269.2 c -1.44,-0.83 -2.8,-1.22 -4.04,-1.22"
         style="fill:#90b9e6;fill-opacity:1;fill-rule:nonzero;stroke:none"
         id="path903" /><path
         d="m 1600.7846,3529.3617 69.58,40.18 c 5.46,3.14 9.88,11.59 9.88,18.87 0,7.27 -4.42,10.61 -9.88,7.47 l -69.58,-40.18 c -5.45,-3.15 -9.87,-11.6 -9.87,-18.88 0,-7.26 4.42,-10.61 9.87,-7.46"
         style="fill:#d9effb;fill-opacity:1;fill-rule:nonzero;stroke:none"
         id="path905" /><path
         d="m 1541.4846,3508.3017 c 0,-7.28 5.11,-10.23 11.41,-6.59 6.3,3.64 11.41,12.48 11.41,19.75 0,7.28 -5.11,10.23 -11.41,6.58 -6.3,-3.63 -11.41,-12.48 -11.41,-19.74"
         style="fill:#263c7a;fill-opacity:1;fill-rule:nonzero;stroke:none"
         id="path907" /><path
         d="m 1501.2546,3485.0717 c 0,-7.28 5.11,-10.22 11.41,-6.59 6.29,3.64 11.4,12.48 11.4,19.76 0,7.27 -5.11,10.21 -11.4,6.58 -6.3,-3.64 -11.41,-12.48 -11.41,-19.75"
         style="fill:#263c7a;fill-opacity:1;fill-rule:nonzero;stroke:none"
         id="path909" /><path
         d="m 1461.0246,3461.8317 c 0,-7.26 5.1,-10.21 11.4,-6.58 6.3,3.64 11.41,12.48 11.41,19.76 0,7.27 -5.11,10.22 -11.41,6.58 -6.3,-3.63 -11.4,-12.48 -11.4,-19.76"
         style="fill:#d9effb;fill-opacity:1;fill-rule:nonzero;stroke:none"
         id="path911" /><path
         d="m 1420.7846,3438.6117 c 0,-7.27 5.11,-10.22 11.41,-6.58 6.3,3.63 11.4,12.48 11.4,19.74 0,7.28 -5.1,10.23 -11.4,6.6 -6.3,-3.65 -11.41,-12.48 -11.41,-19.76"
         style="fill:#263c7a;fill-opacity:1;fill-rule:nonzero;stroke:none"
         id="path913" /><path
         d="m 1251.3046,3319.9117 23.44,13.52 c 3.5,2.03 6.33,7.46 6.33,12.12 v 24.8 c 0,4.67 -2.83,6.82 -6.33,4.79 l -23.44,-13.53 c -3.5,-2.02 -6.34,-7.44 -6.34,-12.11 v -24.81 c 0,-4.65 2.84,-6.8 6.34,-4.78"
         style="fill:#263c7a;fill-opacity:1;fill-rule:nonzero;stroke:none"
         id="path915" /><path
         d="m 1217.4946,3081.0117 494.66,285.6 c 11.07,6.4 20.05,23.54 20.05,38.3 v 94.33 c 0,14.76 -8.98,21.54 -20.05,15.15 l -494.66,-285.59 c -11.07,-6.39 -20.05,-23.54 -20.05,-38.3 v -94.33 c 0,-14.76 8.98,-21.54 20.05,-15.16"
         style="fill:#5f92d3;fill-opacity:1;fill-rule:nonzero;stroke:none"
         id="path917" /><path
         d="m 1227.6546,3112.8717 c -3.6,0 -6.13,3.33 -6.13,8.9 v 70.92 c 0,7.49 4.55,16.19 10.17,19.44 l 466.26,269.19 c 1.43,0.82 2.8,1.22 4.04,1.22 3.61,0 6.13,-3.33 6.13,-8.91 v -70.91 c 0,-7.49 -4.56,-16.19 -10.17,-19.43 l -466.26,-269.2 c -1.44,-0.83 -2.8,-1.22 -4.04,-1.22"
         style="fill:#90b9e6;fill-opacity:1;fill-rule:nonzero;stroke:none"
         id="path919" /><path
         d="m 1600.7846,3363.0317 69.58,40.18 c 5.46,3.14 9.88,11.59 9.88,18.87 0,7.27 -4.42,10.61 -9.88,7.47 l -69.58,-40.18 c -5.45,-3.15 -9.87,-11.6 -9.87,-18.87 0,-7.27 4.42,-10.62 9.87,-7.47"
         style="fill:#d9effb;fill-opacity:1;fill-rule:nonzero;stroke:none"
         id="path921" /><path
         d="m 1541.4846,3341.9717 c 0,-7.28 5.11,-10.22 11.41,-6.59 6.3,3.64 11.41,12.48 11.41,19.75 0,7.28 -5.11,10.23 -11.41,6.59 -6.3,-3.64 -11.41,-12.48 -11.41,-19.75"
         style="fill:#ffffff;fill-opacity:1;fill-rule:nonzero;stroke:none"
         id="path923" /><path
         d="m 1501.2546,3318.7417 c 0,-7.28 5.11,-10.23 11.41,-6.58 6.29,3.63 11.4,12.48 11.4,19.74 0,7.28 -5.11,10.23 -11.4,6.59 -6.3,-3.64 -11.41,-12.48 -11.41,-19.75"
         style="fill:#263c7a;fill-opacity:1;fill-rule:nonzero;stroke:none"
         id="path925" /><path
         d="m 1461.0246,3295.5117 c 0,-7.27 5.1,-10.22 11.4,-6.59 6.3,3.64 11.41,12.48 11.41,19.76 0,7.27 -5.11,10.21 -11.41,6.58 -6.3,-3.63 -11.4,-12.48 -11.4,-19.75"
         style="fill:#d9effb;fill-opacity:1;fill-rule:nonzero;stroke:none"
         id="path927" /><path
         d="m 1420.7846,3272.2817 c 0,-7.27 5.11,-10.22 11.41,-6.59 6.3,3.64 11.4,12.48 11.4,19.76 0,7.27 -5.1,10.22 -11.4,6.58 -6.3,-3.63 -11.41,-12.48 -11.41,-19.75"
         style="fill:#263c7a;fill-opacity:1;fill-rule:nonzero;stroke:none"
         id="path929" /><path
         d="m 1251.3046,3153.5817 23.44,13.53 c 3.5,2.02 6.33,7.44 6.33,12.11 v 24.8 c 0,4.67 -2.83,6.81 -6.33,4.79 l -23.44,-13.53 c -3.5,-2.02 -6.34,-7.44 -6.34,-12.11 v -24.8 c 0,-4.67 2.84,-6.81 6.34,-4.79"
         style="fill:#263c7a;fill-opacity:1;fill-rule:nonzero;stroke:none"
         id="path931" /><path
         d="m 1217.4946,2914.6917 494.66,285.59 c 11.07,6.39 20.05,23.54 20.05,38.3 v 94.33 c 0,14.75 -8.98,21.54 -20.05,15.15 l -494.66,-285.59 c -11.07,-6.4 -20.05,-23.55 -20.05,-38.3 v -94.33 c 0,-14.76 8.98,-21.54 20.05,-15.15"
         style="fill:#5f92d3;fill-opacity:1;fill-rule:nonzero;stroke:none"
         id="path933" /><path
         d="m 1227.6546,2946.5417 c -3.6,0 -6.13,3.33 -6.13,8.91 v 70.9 c 0,7.5 4.55,16.2 10.17,19.44 l 466.26,269.2 c 1.43,0.83 2.8,1.22 4.04,1.22 3.61,0 6.13,-3.33 6.13,-8.91 v -70.92 c 0,-7.49 -4.56,-16.19 -10.17,-19.43 l -466.26,-269.19 c -1.44,-0.83 -2.8,-1.22 -4.04,-1.22"
         style="fill:#90b9e6;fill-opacity:1;fill-rule:nonzero;stroke:none"
         id="path935" /><path
         d="m 1600.7846,3196.7117 69.58,40.16 c 5.46,3.16 9.88,11.6 9.88,18.88 0,7.27 -4.42,10.61 -9.88,7.46 l -69.58,-40.17 c -5.45,-3.15 -9.87,-11.6 -9.87,-18.87 0,-7.28 4.42,-10.62 9.87,-7.46"
         style="fill:#d9effb;fill-opacity:1;fill-rule:nonzero;stroke:none"
         id="path937" /><path
         d="m 1541.4846,3175.6317 c 0,-7.26 5.11,-10.21 11.41,-6.58 6.3,3.64 11.41,12.48 11.41,19.76 0,7.27 -5.11,10.21 -11.41,6.58 -6.3,-3.63 -11.41,-12.48 -11.41,-19.76"
         style="fill:#ffffff;fill-opacity:1;fill-rule:nonzero;stroke:none"
         id="path939" /><path
         d="m 1501.2546,3152.4117 c 0,-7.28 5.11,-10.23 11.41,-6.58 6.29,3.63 11.4,12.48 11.4,19.74 0,7.28 -5.11,10.23 -11.4,6.59 -6.3,-3.64 -11.41,-12.48 -11.41,-19.75"
         style="fill:#263c7a;fill-opacity:1;fill-rule:nonzero;stroke:none"
         id="path941" /><path
         d="m 1461.0246,3129.1817 c 0,-7.28 5.1,-10.22 11.4,-6.58 6.3,3.63 11.41,12.48 11.41,19.75 0,7.27 -5.11,10.22 -11.41,6.58 -6.3,-3.63 -11.4,-12.48 -11.4,-19.75"
         style="fill:#d9effb;fill-opacity:1;fill-rule:nonzero;stroke:none"
         id="path943" /><path
         d="m 1420.7846,3105.9517 c 0,-7.27 5.11,-10.22 11.41,-6.59 6.3,3.65 11.4,12.48 11.4,19.76 0,7.27 -5.1,10.22 -11.4,6.58 -6.3,-3.63 -11.41,-12.48 -11.41,-19.75"
         style="fill:#263c7a;fill-opacity:1;fill-rule:nonzero;stroke:none"
         id="path945" /><path
         d="m 1251.3046,2987.2417 23.44,13.54 c 3.5,2.02 6.33,7.44 6.33,12.11 v 24.8 c 0,4.67 -2.83,6.81 -6.33,4.79 l -23.44,-13.53 c -3.5,-2.02 -6.34,-7.45 -6.34,-12.12 v -24.79 c 0,-4.67 2.84,-6.81 6.34,-4.8"
         style="fill:#263c7a;fill-opacity:1;fill-rule:nonzero;stroke:none"
         id="path947" /><path
         d="m 1217.4946,2748.3617 494.66,285.59 c 11.07,6.39 20.05,23.54 20.05,38.3 v 94.33 c 0,14.76 -8.98,21.54 -20.05,15.15 l -494.66,-285.59 c -11.07,-6.4 -20.05,-23.54 -20.05,-38.3 v -94.33 c 0,-14.76 8.98,-21.54 20.05,-15.15"
         style="fill:#5f92d3;fill-opacity:1;fill-rule:nonzero;stroke:none"
         id="path949" /><path
         d="m 1227.6546,2780.2117 c -3.6,0 -6.13,3.33 -6.13,8.91 v 70.91 c 0,7.49 4.55,16.19 10.17,19.43 l 466.26,269.2 c 1.43,0.83 2.8,1.22 4.03,1.22 3.61,0 6.14,-3.34 6.14,-8.92 v -70.9 c 0,-7.49 -4.56,-16.2 -10.17,-19.44 l -466.26,-269.19 c -1.44,-0.83 -2.8,-1.22 -4.04,-1.22"
         style="fill:#90b9e6;fill-opacity:1;fill-rule:nonzero;stroke:none"
         id="path951" /><path
         d="m 1600.7846,3030.3717 69.58,40.17 c 5.46,3.16 9.88,11.61 9.88,18.88 0,7.27 -4.42,10.62 -9.88,7.46 l -69.58,-40.17 c -5.45,-3.15 -9.87,-11.6 -9.87,-18.87 0,-7.28 4.42,-10.62 9.87,-7.47"
         style="fill:#d9effb;fill-opacity:1;fill-rule:nonzero;stroke:none"
         id="path953" /><path
         d="m 1541.4846,3009.3017 c 0,-7.27 5.11,-10.21 11.41,-6.58 6.3,3.63 11.41,12.48 11.41,19.76 0,7.26 -5.11,10.21 -11.41,6.58 -6.3,-3.63 -11.41,-12.48 -11.41,-19.76"
         style="fill:#263c7a;fill-opacity:1;fill-rule:nonzero;stroke:none"
         id="path955" /><path
         d="m 1501.2546,2986.0817 c 0,-7.27 5.11,-10.22 11.41,-6.59 6.29,3.64 11.4,12.48 11.4,19.76 0,7.27 -5.11,10.22 -11.4,6.58 -6.3,-3.64 -11.41,-12.48 -11.41,-19.75"
         style="fill:#263c7a;fill-opacity:1;fill-rule:nonzero;stroke:none"
         id="path957" /><path
         d="m 1461.0246,2962.8517 c 0,-7.28 5.1,-10.23 11.4,-6.58 6.3,3.63 11.41,12.48 11.41,19.75 0,7.27 -5.11,10.22 -11.41,6.58 -6.3,-3.64 -11.4,-12.48 -11.4,-19.75"
         style="fill:#d9effb;fill-opacity:1;fill-rule:nonzero;stroke:none"
         id="path959" /><path
         d="m 1420.7846,2939.6217 c 0,-7.27 5.11,-10.22 11.41,-6.59 6.3,3.65 11.4,12.49 11.4,19.76 0,7.28 -5.1,10.22 -11.4,6.58 -6.3,-3.63 -11.41,-12.48 -11.41,-19.75"
         style="fill:#263c7a;fill-opacity:1;fill-rule:nonzero;stroke:none"
         id="path961" /><path
         d="m 1251.3046,2820.9217 23.44,13.53 c 3.5,2.02 6.33,7.44 6.33,12.11 v 24.79 c 0,4.67 -2.83,6.82 -6.33,4.8 l -23.44,-13.54 c -3.5,-2.01 -6.34,-7.44 -6.34,-12.1 v -24.8 c 0,-4.67 2.84,-6.82 6.34,-4.79"
         style="fill:#d9effb;fill-opacity:1;fill-rule:nonzero;stroke:none"
         id="path963" /><path
         d="m 1217.4946,2582.0317 494.66,285.58 c 11.07,6.4 20.05,23.55 20.05,38.32 v 94.31 c 0,14.77 -8.98,21.55 -20.05,15.16 l -494.66,-285.59 c -11.07,-6.39 -20.05,-23.54 -20.05,-38.31 v -94.32 c 0,-14.76 8.98,-21.55 20.05,-15.15"
         style="fill:#5f92d3;fill-opacity:1;fill-rule:nonzero;stroke:none"
         id="path965" /><path
         d="m 1227.6546,2613.8817 c -3.61,0 -6.13,3.34 -6.13,8.91 v 70.91 c 0,7.49 4.55,16.19 10.17,19.43 l 466.26,269.2 c 1.43,0.83 2.8,1.22 4.03,1.22 3.61,0 6.14,-3.34 6.14,-8.91 v -70.91 c 0,-7.49 -4.56,-16.19 -10.17,-19.44 l -466.26,-269.18 c -1.44,-0.84 -2.8,-1.23 -4.04,-1.23"
         style="fill:#90b9e6;fill-opacity:1;fill-rule:nonzero;stroke:none"
         id="path967" /><path
         d="m 1600.7846,2864.0417 69.58,40.18 c 5.46,3.15 9.88,11.6 9.88,18.86 0,7.28 -4.42,10.63 -9.88,7.47 l -69.58,-40.17 c -5.45,-3.15 -9.87,-11.59 -9.87,-18.87 0,-7.27 4.42,-10.61 9.87,-7.47"
         style="fill:#d9effb;fill-opacity:1;fill-rule:nonzero;stroke:none"
         id="path969" /><path
         d="m 1541.4846,2842.9817 c 0,-7.28 5.11,-10.23 11.41,-6.59 6.3,3.64 11.41,12.48 11.41,19.76 0,7.27 -5.11,10.21 -11.41,6.58 -6.3,-3.64 -11.41,-12.48 -11.41,-19.75"
         style="fill:#263c7a;fill-opacity:1;fill-rule:nonzero;stroke:none"
         id="path971" /><path
         d="m 1501.2546,2819.7417 c 0,-7.26 5.11,-10.21 11.41,-6.58 6.29,3.64 11.4,12.48 11.4,19.76 0,7.27 -5.11,10.22 -11.4,6.58 -6.3,-3.63 -11.41,-12.48 -11.41,-19.76"
         style="fill:#ffffff;fill-opacity:1;fill-rule:nonzero;stroke:none"
         id="path973" /><path
         d="m 1461.0246,2796.5217 c 0,-7.27 5.1,-10.22 11.4,-6.58 6.3,3.63 11.41,12.48 11.41,19.74 0,7.28 -5.11,10.23 -11.41,6.6 -6.3,-3.65 -11.4,-12.48 -11.4,-19.76"
         style="fill:#d9effb;fill-opacity:1;fill-rule:nonzero;stroke:none"
         id="path975" /><path
         d="m 1420.7846,2773.2917 c 0,-7.28 5.11,-10.22 11.41,-6.58 6.3,3.63 11.4,12.48 11.4,19.75 0,7.27 -5.1,10.22 -11.4,6.58 -6.3,-3.63 -11.41,-12.48 -11.41,-19.75"
         style="fill:#ffffff;fill-opacity:1;fill-rule:nonzero;stroke:none"
         id="path977" /><path
         d="m 1251.3046,2654.5917 23.44,13.53 c 3.5,2.02 6.33,7.44 6.33,12.11 v 24.8 c 0,4.66 -2.83,6.81 -6.33,4.79 l -23.44,-13.53 c -3.5,-2.02 -6.34,-7.44 -6.34,-12.11 v -24.8 c 0,-4.67 2.84,-6.81 6.34,-4.79"
         style="fill:#d9effb;fill-opacity:1;fill-rule:nonzero;stroke:none"
         id="path979" /><path
         d="m 1217.4946,2415.7017 494.66,285.59 c 11.07,6.39 20.05,23.54 20.05,38.31 v 94.31 c 0,14.77 -8.98,21.56 -20.05,15.16 l -494.66,-285.59 c -11.07,-6.39 -20.05,-23.54 -20.05,-38.31 v -94.31 c 0,-14.77 8.98,-21.56 20.05,-15.16"
         style="fill:#5f92d3;fill-opacity:1;fill-rule:nonzero;stroke:none"
         id="path981" /><path
         d="m 1227.6646,2447.5517 c -3.61,0 -6.14,3.33 -6.14,8.91 v 70.91 c 0,7.49 4.55,16.19 10.17,19.43 l 466.26,269.19 c 1.43,0.84 2.8,1.23 4.04,1.23 3.61,0 6.13,-3.34 6.13,-8.91 v -70.91 c 0,-7.49 -4.56,-16.19 -10.17,-19.43 l -466.26,-269.2 c -1.43,-0.83 -2.8,-1.22 -4.03,-1.22"
         style="fill:#90b9e6;fill-opacity:1;fill-rule:nonzero;stroke:none"
         id="path983" /><path
         d="m 1600.7846,2697.7117 69.58,40.18 c 5.46,3.14 9.88,11.6 9.88,18.87 0,7.27 -4.42,10.61 -9.88,7.47 l -69.58,-40.18 c -5.45,-3.14 -9.87,-11.6 -9.87,-18.87 0,-7.27 4.42,-10.61 9.87,-7.47"
         style="fill:#d9effb;fill-opacity:1;fill-rule:nonzero;stroke:none"
         id="path985" /><path
         d="m 1541.4846,2676.6517 c 0,-7.28 5.11,-10.23 11.41,-6.58 6.3,3.63 11.41,12.48 11.41,19.74 0,7.28 -5.11,10.23 -11.41,6.59 -6.3,-3.64 -11.41,-12.48 -11.41,-19.75"
         style="fill:#263c7a;fill-opacity:1;fill-rule:nonzero;stroke:none"
         id="path987" /><path
         d="m 1501.2546,2653.4217 c 0,-7.27 5.11,-10.22 11.41,-6.59 6.29,3.64 11.4,12.48 11.4,19.76 0,7.27 -5.11,10.21 -11.4,6.58 -6.3,-3.63 -11.41,-12.48 -11.41,-19.75"
         style="fill:#263c7a;fill-opacity:1;fill-rule:nonzero;stroke:none"
         id="path989" /><path
         d="m 1461.0246,2630.1917 c 0,-7.27 5.1,-10.22 11.4,-6.59 6.3,3.64 11.41,12.48 11.41,19.76 0,7.27 -5.11,10.22 -11.41,6.58 -6.3,-3.63 -11.4,-12.48 -11.4,-19.75"
         style="fill:#d9effb;fill-opacity:1;fill-rule:nonzero;stroke:none"
         id="path991" /><path
         d="m 1420.7846,2606.9617 c 0,-7.28 5.11,-10.22 11.41,-6.58 6.3,3.63 11.4,12.48 11.4,19.75 0,7.27 -5.1,10.22 -11.4,6.59 -6.3,-3.65 -11.41,-12.48 -11.41,-19.76"
         style="fill:#263c7a;fill-opacity:1;fill-rule:nonzero;stroke:none"
         id="path993" /><path
         d="m 1251.3046,2488.2617 23.44,13.53 c 3.5,2.03 6.33,7.45 6.33,12.11 v 24.8 c 0,4.67 -2.83,6.82 -6.33,4.79 l -23.44,-13.53 c -3.5,-2.02 -6.34,-7.44 -6.34,-12.11 v -24.8 c 0,-4.66 2.84,-6.81 6.34,-4.79"
         style="fill:#263c7a;fill-opacity:1;fill-rule:nonzero;stroke:none"
         id="path995" /><path
         d="m 1217.4946,2249.3717 494.66,285.59 c 11.07,6.4 20.05,23.54 20.05,38.3 v 94.33 c 0,14.76 -8.98,21.55 -20.05,15.15 l -494.66,-285.59 c -11.07,-6.39 -20.05,-23.54 -20.05,-38.31 v -94.32 c 0,-14.76 8.98,-21.54 20.05,-15.15"
         style="fill:#5f92d3;fill-opacity:1;fill-rule:nonzero;stroke:none"
         id="path997" /><path
         d="m 1227.6646,2281.2217 c -3.61,0 -6.14,3.34 -6.14,8.91 v 70.91 c 0,7.49 4.55,16.19 10.17,19.44 l 466.26,269.19 c 1.43,0.82 2.8,1.22 4.04,1.22 3.61,0 6.13,-3.33 6.13,-8.91 v -70.91 c 0,-7.49 -4.56,-16.19 -10.17,-19.43 l -466.26,-269.2 c -1.43,-0.83 -2.8,-1.22 -4.03,-1.22"
         style="fill:#90b9e6;fill-opacity:1;fill-rule:nonzero;stroke:none"
         id="path999" /><path
         d="m 1600.7846,2531.3817 69.58,40.18 c 5.46,3.14 9.88,11.59 9.88,18.87 0,7.27 -4.42,10.61 -9.88,7.47 l -69.58,-40.18 c -5.45,-3.15 -9.87,-11.6 -9.87,-18.87 0,-7.27 4.42,-10.62 9.87,-7.47"
         style="fill:#d9effb;fill-opacity:1;fill-rule:nonzero;stroke:none"
         id="path1001" /><path
         d="m 1528.7746,2501.3217 c 0,-13.74 9.65,-19.31 21.54,-12.45 11.9,6.88 21.55,23.58 21.55,37.32 0,13.74 -9.65,19.31 -21.55,12.44 -11.89,-6.87 -21.54,-23.57 -21.54,-37.31"
         style="fill:#ffffff;fill-opacity:1;fill-rule:nonzero;stroke:none"
         id="path1003" /><path
         d="m 1445.4446,2452.5617 c 0,-7.28 5.11,-10.23 11.41,-6.6 6.28,3.65 11.39,12.48 11.39,19.76 0,7.28 -5.11,10.22 -11.39,6.58 -6.3,-3.63 -11.41,-12.48 -11.41,-19.74"
         style="fill:#263c7a;fill-opacity:1;fill-rule:nonzero;stroke:none"
         id="path1005" /><path
         d="m 1405.2046,2429.3217 c 0,-7.27 5.11,-10.22 11.41,-6.58 6.3,3.63 11.4,12.48 11.4,19.76 0,7.26 -5.1,10.21 -11.4,6.58 -6.3,-3.64 -11.41,-12.48 -11.41,-19.76"
         style="fill:#d9effb;fill-opacity:1;fill-rule:nonzero;stroke:none"
         id="path1007" /><path
         d="m 1364.9746,2406.0917 c 0,-7.26 5.11,-10.21 11.41,-6.58 6.3,3.64 11.4,12.48 11.4,19.76 0,7.27 -5.1,10.21 -11.4,6.58 -6.3,-3.64 -11.41,-12.48 -11.41,-19.76"
         style="fill:#263c7a;fill-opacity:1;fill-rule:nonzero;stroke:none"
         id="path1009" /><path
         d="m 1251.3046,2321.9317 23.44,13.54 c 3.5,2.01 6.33,7.44 6.33,12.11 v 24.79 c 0,4.67 -2.83,6.82 -6.33,4.8 l -23.44,-13.54 c -3.5,-2.02 -6.34,-7.44 -6.34,-12.11 v -24.79 c 0,-4.67 2.84,-6.82 6.34,-4.8"
         style="fill:#d9effb;fill-opacity:1;fill-rule:nonzero;stroke:none"
         id="path1011" /><path
         d="m 3227.6846,1990.7517 -971.66,561.26 1095.32,-51.6 68.03,-65.08 14.79,-97.62 -10.85,-66.33 -32.54,-80.58 -32.54,-63.11 -36.47,-47.33 -94.08,-89.61"
         style="fill:#263c7a;fill-opacity:1;fill-rule:nonzero;stroke:none"
         id="path1103" /><path
         d="m 2411.0046,3063.7317 c -1.66,1.01 -3.34,1.99 -5.06,2.91 l -0.31,0.18 h -0.02 c -38.82,20.78 -91.55,17 -149.59,-16.52 l -1327.24993,-766.28 c 5.65,-4.24 10.63,-9.34 15.27,-14.85 l 50.31,29.04 268.57993,-583.66 139.03,-189.818 90.72,-31.551 90.95,35.551 441.5,250.898 875.09,500.38 320.96,192.79 83.81,26.62 75.39,4.48 -969.38,559.83"
         style="fill:#d9effb;fill-opacity:1;fill-rule:nonzero;stroke:none"
         id="path1105" /><path
         d="m 1362.1246,1637.4407 c 0,137.381 96.8,305.031 215.77,373.711 v -23.66 c -107.68,-62.17 -195.27,-213.89 -195.27,-338.219 0,-124.332 87.59,-174.902 195.27,-112.742 l 1649.79,952.511 c 59.46,34.34 113.38,37.54 152.45,15.02 l -969.13,559.67 c -1.66,1.01 -3.34,1.99 -5.06,2.91 l -0.31,0.18 h -0.02 c -38.82,20.78 -91.55,17 -149.59,-16.52 l -1327.24993,-766.28 c 5.65,-4.24 10.63,-9.34 15.27,-14.85 l 50.31,29.05 268.57993,-583.67 111.08,-151.658 c -7.66,21.098 -11.89,46.039 -11.89,74.547"
         style="fill:#d9effb;fill-opacity:1;fill-rule:nonzero;stroke:none"
         id="path1107" /><path
         d="m 3380.3746,2503.9017 h 0.01 l -0.17,0.1 z"
         style="fill:#d9effb;fill-opacity:1;fill-rule:nonzero;stroke:none"
         id="path1109" /><path
         d="m 1362.1246,1650.5617 c 0,-2.398 0.2,-4.629 0.26,-6.98 1.41,68.57 26.34,144.07 65.67,210.81 -1.84,1.16 -3.68,2.34 -5.5,3.54 -37.34,-66.37 -60.43,-140.43 -60.43,-207.37"
         style="fill:#ffffff;fill-opacity:1;fill-rule:nonzero;stroke:none"
         id="path1111" /><path
         d="m 3227.6846,2502.1617 -1649.79,-952.498 c -105.14,-60.704 -191.08,-13.872 -195.08,104.108 -0.03,-1.499 -0.19,-3.019 -0.19,-4.499 0,-124.332 87.59,-174.902 195.27,-112.742 l 1649.79,952.511 c 59.46,34.34 113.38,37.54 152.45,15.02 l -46.89,27.07 c -31.24,2.3 -67.23,-6.84 -105.56,-28.97"
         style="fill:#ffffff;fill-opacity:1;fill-rule:nonzero;stroke:none"
         id="path1113" /><path
         d="m 1262.9346,1727.6717 -268.57993,583.68 -50.31,-29.06 c -2.02,2.41 -4.14,4.69 -6.32,6.9 l -8.95,-5.17 c 5.65,-4.24 10.63,-9.34 15.27,-14.85 l 50.31,29.05 268.57993,-583.67 111.08,-151.658 c -2.44,6.727 -4.39,13.977 -6.11,21.477 l -104.97,143.301"
         style="fill:#ffffff;fill-opacity:1;fill-rule:nonzero;stroke:none"
         id="path1115" /><path
         d="m 3380.3746,2517.0317 h 0.01 l -0.17,0.1 z"
         style="fill:#d9effb;fill-opacity:1;fill-rule:nonzero;stroke:none"
         id="path1117" /><path
         d="m 606.24467,2572.4217 h -0.01 c -118.97,-68.69 -215.76,-236.34 -215.76,-373.71 0,-66.33 22.61,-113.6 59.34,-137.07 l 0.04,-0.07 0.59,-0.34 c 2.18,-1.37 4.41,-2.66 6.69,-3.86 l 968.10993,-559.4 -59.26,107.129 6.89,106.981 18.74,60.14 28.59,64.1 c 0,0 23.67,43.87 25.15,44.87 1.48,0.99 35,44.36 35,44.36 l 32.6,34.03 35.44,22.67 29.5,28.9 -971.64993,561.27"
         style="fill:#5f92d3;fill-opacity:1;fill-rule:nonzero;stroke:none"
         id="path1119" /><path
         d="m 3227.6846,1990.7517 v 23.66 c 107.66,62.17 195.27,213.89 195.27,338.22 0,124.33 -87.61,174.91 -195.27,112.74 l -1649.79,-952.501 c -118.97,-68.688 -215.77,-12.809 -215.77,124.57 0,137.381 96.8,305.021 215.77,373.711 v -23.66 c -107.68,-62.17 -195.27,-213.89 -195.27,-338.219 0,-124.332 87.59,-174.902 195.27,-112.742 l 1649.79,952.501 c 118.97,68.7 215.76,12.81 215.76,-124.56 0,-137.38 -96.79,-305.03 -215.76,-373.72"
         style="fill:#263c7a;fill-opacity:1;fill-rule:nonzero;stroke:none"
         id="path1121" /><path
         d="m 2455.0346,2325.8917 -462.03,260.83 c -18.45,10.39 -50.45,8.73 -71.49,-3.71 l -264,-156.14 c -21.04,-12.44 -23.14,-30.94 -4.7,-41.34 l 462.03,-260.82 c 18.44,-10.39 50.44,-8.73 71.48,3.72 l 264,156.12 c 21.04,12.44 23.15,30.95 4.71,41.34"
         style="fill:#5f92d3;fill-opacity:1;fill-rule:nonzero;stroke:none"
         id="path1123" /><path
         d="m 2103.3846,2181.2717 -474.97,267.64 c -9.4,5.3 -13.87,12.46 -14.1,20.01 l -0.25,-0.18 -0.54,52.89 c 0,0 16.68,-13.69 26.51,-21.72 l 295.95,175.03 c 24.08,14.24 60.71,16.14 81.81,4.25 l 453.99,-255.82 34.72,20.53 0.62,-53.38 -0.21,0.17 c -0.12,-9.15 -6.57,-18.8 -19.53,-26.46 l -302.19,-178.71 c -24.07,-14.24 -60.7,-16.14 -81.81,-4.25"
         style="fill:#d1078d;fill-opacity:1;fill-rule:nonzero;stroke:none"
         id="path1125" /><path
         d="m 2492.1746,2465.3717 -474.98,267.65 c -21.11,11.88 -57.74,9.99 -81.81,-4.25 l -302.19,-178.71 c -24.08,-14.24 -26.48,-35.42 -5.38,-47.32 l 474.97,-267.64 c 21.11,-11.9 57.74,-10 81.82,4.24 l 302.18,178.71 c 24.08,14.24 26.49,35.42 5.39,47.32"
         style="fill:#ee1696;fill-opacity:1;fill-rule:nonzero;stroke:none"
         id="path1127" /><path
         d="m 2102.7846,2235.1017 -474.97,267.64 c -12,6.76 -16.14,16.53 -13.28,26.31 2.23,-4.58 6.12,-8.83 12.21,-12.26 l 474.98,-267.63 c 21.1,-11.9 57.73,-9.99 81.8,4.25 l 302.19,178.7 c 10.38,6.15 16.49,13.58 18.65,21 5.49,-11.31 -0.44,-24.92 -17.58,-35.06 l -302.18,-178.7 c -24.08,-14.25 -60.71,-16.15 -81.82,-4.25"
         style="fill:#ffffff;fill-opacity:1;fill-rule:nonzero;stroke:none"
         id="path1129" /><path
         d="m 1993.8846,2534.7617 c 17.49,10.34 17.31,26.81 -0.38,36.78 -17.71,9.98 -46.23,9.68 -63.72,-0.66 -17.49,-10.35 -17.31,-26.81 0.4,-36.78 17.69,-9.98 46.22,-9.68 63.7,0.66"
         style="fill:#ffffff;fill-opacity:1;fill-rule:nonzero;stroke:none"
         id="path1131" /><path
         d="m 2090.9746,2480.0617 c 17.49,10.34 17.31,26.8 -0.39,36.77 -17.7,9.98 -46.22,9.68 -63.71,-0.66 -17.49,-10.34 -17.31,-26.81 0.39,-36.78 17.7,-9.98 46.22,-9.68 63.71,0.67"
         style="fill:#ffffff;fill-opacity:1;fill-rule:nonzero;stroke:none"
         id="path1133" /><path
         d="m 2188.0546,2425.3517 c 17.49,10.34 17.31,26.81 -0.38,36.79 -17.7,9.97 -46.23,9.66 -63.72,-0.68 -17.49,-10.34 -17.31,-26.8 0.4,-36.78 17.69,-9.97 46.22,-9.67 63.7,0.67"
         style="fill:#ffffff;fill-opacity:1;fill-rule:nonzero;stroke:none"
         id="path1135" /><path
         d="m 1830.7146,1993.8617 -387.19,225.79 -24.3,-13.89 387.2,-225.78 24.29,13.88"
         style="fill:#5f92d3;fill-opacity:1;fill-rule:nonzero;stroke:none"
         id="path1137" /><path
         d="m 1819.9246,2122.6917 -270.28,157.61 -24.3,-13.88 270.28,-157.6 24.3,13.87"
         style="fill:#5f92d3;fill-opacity:1;fill-rule:nonzero;stroke:none"
         id="path1139" /><path
         d="m 1730.4046,2113.6217 -233.83,136.35 -24.29,-13.88 233.83,-136.35 24.29,13.88"
         style="fill:#5f92d3;fill-opacity:1;fill-rule:nonzero;stroke:none"
         id="path1141" /><path
         d="m 1883.7746,2024.2017 -116.91,68.17 -24.29,-13.89 116.91,-68.17 24.29,13.89"
         style="fill:#5f92d3;fill-opacity:1;fill-rule:nonzero;stroke:none"
         id="path1143" /><path
         d="m 2734.4646,2525.6417 -387.19,225.78 -24.29,-13.88 387.2,-225.78 24.28,13.88"
         style="fill:#5f92d3;fill-opacity:1;fill-rule:nonzero;stroke:none"
         id="path1145" /><path
         d="m 2723.6746,2654.4817 -270.28,157.61 -24.29,-13.89 270.28,-157.61 24.29,13.89"
         style="fill:#5f92d3;fill-opacity:1;fill-rule:nonzero;stroke:none"
         id="path1147" /><path
         d="m 2634.1646,2645.4117 -233.83,136.35 -24.3,-13.89 233.83,-136.35 24.3,13.89"
         style="fill:#5f92d3;fill-opacity:1;fill-rule:nonzero;stroke:none"
         id="path1149" /><path
         d="m 2787.5346,2555.9717 -116.92,68.18 -24.29,-13.89 116.91,-68.17 24.3,13.88"
         style="fill:#5f92d3;fill-opacity:1;fill-rule:nonzero;stroke:none"
         id="path1151" /><path
         d="m 2411.0046,3063.7317 c -1.66,1.01 -3.34,1.99 -5.06,2.91 l -0.31,0.18 h -0.02 c -38.82,20.78 -91.55,17 -149.59,-16.52 l -111.4,-64.32 156.59,-90.4 c 7.57,-4.36 14.42,-4.33 19.48,-0.78 l 0.02,-0.02 190.94,110.82 -100.65,58.13"
         style="fill:#b2dcf5;fill-opacity:1;fill-rule:nonzero;stroke:none"
         id="path1153" /><path
         d="m 2653.5546,3231.4317 -50.25,29.02 185.3,106.98 c 8.75,5.05 8.75,13.27 0,18.33 l -189.3,109.29 c -8.75,5.05 -22.99,5.05 -31.74,0 l -185.3,-106.99 -50.26,29.02 185.29,106.99 c 36.47,21.04 95.81,21.04 132.27,-0.01 l 189.3,-109.29 c 36.46,-21.05 36.46,-55.31 0,-76.35 l -185.31,-106.99"
         style="fill:#ee1696;fill-opacity:1;fill-rule:nonzero;stroke:none"
         id="path1155" /><path
         d="m 2734.6546,3218.6517 c 0,26.87 -16.33,58.09 -36.49,69.72 l -335.73,193.83 c -9.02,5.21 -17.26,5.58 -23.63,2.03 l -0.02,0.01 -400.86,-232.94 387.65,-292.1 394.92,229.21 c 1.22,0.55 2.4,1.2 3.48,2.03 h 0.01 c 6.6,4.99 10.67,14.79 10.67,28.21"
         style="fill:#d9effb;fill-opacity:1;fill-rule:nonzero;stroke:none"
         id="path1157" /><path
         d="m 2325.5746,2959.2017 394.92,229.21 c 1.22,0.55 2.4,1.2 3.48,2.03 h 0.01 c 6.6,4.99 10.67,14.79 10.67,28.21 0,12.83 -3.75,26.63 -9.83,38.83 l -450.18,-259.91 50.93,-38.37"
         style="fill:#263c7a;fill-opacity:1;fill-rule:nonzero;stroke:none"
         id="path1159" /><path
         d="m 2300.3246,2960.2317 -335.73,193.83 c -20.15,11.64 -36.48,42.85 -36.48,69.72 0,26.86 16.33,39.22 36.48,27.58 l 335.73,-193.83 c 20.15,-11.63 36.49,-42.85 36.49,-69.72 0,-26.87 -16.34,-39.22 -36.49,-27.58"
         style="fill:#5f92d3;fill-opacity:1;fill-rule:nonzero;stroke:none"
         id="path1161" /><path
         d="m 2304.3646,3059.3617 -335.73,193.84 c -9.27,5.34 -17.7,5.58 -24.13,1.7 5.76,1.76 12.66,0.75 20.09,-3.54 l 335.73,-193.83 c 20.15,-11.63 36.49,-42.85 36.49,-69.71 v -0.01 c 0,-14.51 -4.8,-24.74 -12.36,-29.29 9.88,3.01 16.4,14.16 16.4,31.13 v 0.01 c 0,26.86 -16.34,58.07 -36.49,69.7"
         style="fill:#ffffff;fill-opacity:1;fill-rule:nonzero;stroke:none"
         id="path1163" /><path
         d="m 2250.0346,3025.6017 -40.36,23.28 c -4.02,2.32 -7.27,8.55 -7.27,13.9 0,5.35 3.25,7.81 7.27,5.5 l 40.36,-23.28 c 4.02,-2.33 7.27,-8.55 7.27,-13.9 0,-5.36 -3.25,-7.82 -7.27,-5.5"
         style="fill:#ffffff;fill-opacity:1;fill-rule:nonzero;stroke:none"
         id="path1165" /><path
         d="m 2295.5646,3301.2017 c 12.17,7.2 12.06,18.66 -0.27,25.61 -12.32,6.95 -32.18,6.73 -44.36,-0.46 -12.18,-7.2 -12.05,-18.67 0.27,-25.62 12.32,-6.94 32.18,-6.73 44.36,0.47"
         style="fill:#5f92d3;fill-opacity:1;fill-rule:nonzero;stroke:none"
         id="path1167" /><path
         d="m 2363.1646,3263.1017 c 12.18,7.21 12.05,18.67 -0.27,25.62 -12.32,6.94 -32.19,6.74 -44.36,-0.47 -12.17,-7.2 -12.06,-18.66 0.27,-25.61 12.32,-6.94 32.19,-6.73 44.36,0.46"
         style="fill:#ffffff;fill-opacity:1;fill-rule:nonzero;stroke:none"
         id="path1169" /><path
         d="m 2430.7646,3225.0117 c 12.18,7.2 12.06,18.67 -0.26,25.61 -12.33,6.95 -32.19,6.74 -44.37,-0.46 -12.18,-7.2 -12.05,-18.67 0.28,-25.61 12.32,-6.95 32.17,-6.74 44.35,0.46"
         style="fill:#ffffff;fill-opacity:1;fill-rule:nonzero;stroke:none"
         id="path1171" /><path
         d="m 1863.3746,1217.6707 1052.91,608.331 c 25.53,14.74 22.32,40.49 -7.15,57.5 -29.47,17.02 -74.06,18.87 -99.59,4.13 l -1052.92,-608.332 c -25.53,-14.726 -22.32,-40.468 7.15,-57.5 29.48,-17.019 74.07,-18.859 99.6,-4.129"
         style="fill:#f2f2f2;fill-opacity:1;fill-rule:nonzero;stroke:none"
         id="path1173" /><path
         d="m 3002.3246,2033.9617 v 0 c -0.88,1.52 -2.61,2.31 -4.33,1.96 l -56.06,-11.59 21.66,-37.69 38.24,42.61 c 1.16,1.29 1.36,3.2 0.49,4.71"
         style="fill:#d9effb;fill-opacity:1;fill-rule:nonzero;stroke:none"
         id="path1175" /><path
         d="m 2979.9946,2006.5417 c 0.02,8.07 -5.63,17.89 -12.62,21.94 -3.22,1.87 -6.14,2.12 -8.38,1.12 -64.63,1.17 -128.37,-15.23 -184.42,-47.42 l -4.06,-2.34 68.31,-118.89 20.64,13.4 c 43.71,28.37 80.69,65.95 108.33,110.12 l 8.93,14.26 c 2,1.42 3.26,4.07 3.27,7.81"
         style="fill:#5f92d3;fill-opacity:1;fill-rule:nonzero;stroke:none"
         id="path1177" /><path
         d="m 2853.0846,1892.3017 c 0.06,30.92 -21.57,68.56 -48.31,84.07 -26.73,15.51 -48.46,3.03 -48.53,-27.89 -0.07,-30.9 21.56,-68.55 48.3,-84.06 26.75,-15.52 48.48,-3.03 48.54,27.88"
         style="fill:#d9effb;fill-opacity:1;fill-rule:nonzero;stroke:none"
         id="path1179" /><path
         d="m 2423.9246,1608.1317 414.9,252.82 -68.31,118.89 -427.31,-231.23 80.72,-140.48"
         style="fill:#d9effb;fill-opacity:1;fill-rule:nonzero;stroke:none"
         id="path1181" /><path
         d="m 2440.7746,1645.1827 c 0.08,36.529 -25.48,80.999 -57.07,99.339 -31.6,18.33 -57.27,3.57 -57.35,-32.96 -0.08,-36.52 25.48,-81 57.07,-99.328 31.6,-18.34 57.27,-3.582 57.35,32.949"
         style="fill:#d9effb;fill-opacity:1;fill-rule:nonzero;stroke:none"
         id="path1183" /><path
         d="m 2417.1146,1631.5927 c 0.08,36.519 -25.47,80.999 -57.07,99.329 -31.6,18.34 -57.28,3.58 -57.35,-32.95 -0.08,-36.53 25.47,-81 57.08,-99.328 31.59,-18.344 57.27,-3.582 57.34,32.949"
         style="fill:#d9effb;fill-opacity:1;fill-rule:nonzero;stroke:none"
         id="path1185" /><path
         d="m 1851.5446,1279.2727 548.71,315.269 -80.71,140.48 -548.71,-315.28 80.71,-140.469"
         style="fill:#d9effb;fill-opacity:1;fill-rule:nonzero;stroke:none"
         id="path1187" /><path
         d="m 1868.4046,1316.3237 c 0.08,36.519 -25.47,81 -57.07,99.328 -31.6,18.332 -57.28,3.582 -57.36,-32.949 -0.07,-36.532 25.48,-81 57.08,-99.332 31.6,-18.329 57.28,-3.59 57.35,32.953"
         style="fill:#d9effb;fill-opacity:1;fill-rule:nonzero;stroke:none"
         id="path1189" /><path
         d="m 1847.9346,1328.1907 c -1.05,21.57 -18.34,48.601 -38.63,60.371 -20.29,11.781 -35.89,3.832 -34.85,-17.738 1.05,-21.571 18.34,-48.614 38.63,-60.371 20.29,-11.77 35.88,-3.832 34.85,17.738"
         style="fill:#4067b1;fill-opacity:1;fill-rule:nonzero;stroke:none"
         id="path1191" /><path
         d="m 2444.9446,1647.5817 c 0.08,36.53 -25.48,81 -57.07,99.33 -12.73,7.38 -24.45,9.32 -33.97,6.7 10.42,10.68 27.35,11.79 46.5,0.68 31.59,-18.34 57.15,-62.81 57.07,-99.33 -0.05,-21.822 -9.26,-35.779 -23.38,-39.662 6.78,6.942 10.82,17.883 10.85,32.282"
         style="fill:#ffffff;fill-opacity:1;fill-rule:nonzero;stroke:none"
         id="path1193" /><path
         d="m 2444.9446,1647.5817 c 0.08,36.53 -25.48,81 -57.07,99.33 -15.8,9.17 -30.13,10.06 -40.5,4.09 l -31.09,-17.86 14.48,-25.19 c 2.36,-33.26 24.22,-71.3 51.76,-90.081 l 14.48,-25.207 31.09,17.859 c 10.38,5.969 16.81,18.789 16.85,37.059"
         style="fill:#5f92d3;fill-opacity:1;fill-rule:nonzero;stroke:none"
         id="path1195" /><path
         d="m 2413.8646,1629.7097 c 0.07,36.532 -25.48,81.012 -57.08,99.342 -31.6,18.33 -57.28,3.57 -57.36,-32.95 -0.07,-36.53 25.48,-81.001 57.08,-99.329 31.6,-18.34 57.28,-3.59 57.36,32.937"
         style="fill:#d9effb;fill-opacity:1;fill-rule:nonzero;stroke:none"
         id="path1197" /><path
         d="m 1822.0946,1312.2337 -34.83,60.617 -116.3,-66.828 c -16.74,-9.621 -22.51,-30.981 -12.89,-47.711 9.62,-16.738 30.97,-22.508 47.71,-12.898 l 116.31,66.82"
         style="fill:#ee1696;fill-opacity:1;fill-rule:nonzero;stroke:none"
         id="path1199" /><path
         d="m 1829.3646,1328.2217 c 0.03,15.762 -10.99,34.949 -24.62,42.852 -13.64,7.91 -24.72,1.547 -24.75,-14.211 -0.04,-15.762 10.99,-34.949 24.62,-42.86 13.63,-7.91 24.72,-1.543 24.75,14.219"
         style="fill:#ee1696;fill-opacity:1;fill-rule:nonzero;stroke:none"
         id="path1201" /><path
         d="m 1959.9846,1539.6637 -17.24,10.007 c -9.91,5.743 -23.09,4.461 -37.13,-3.609 l -59.76,-34.328 c -11.29,-6.492 -20.49,-22.352 -20.52,-35.363 l -0.06,-29.739 c -0.01,-4.988 -2.52,-10.699 -6.13,-14.879 l 2.09,-13.8 -14.73,8.629 0.03,0.019 c -2.13,1.109 -3.46,3.609 -3.45,7.27 l 0.05,29.75 c 0.06,27.132 19.24,60.203 42.77,73.711 l 59.76,34.339 c 19.97,11.469 38.72,13.289 52.82,5.121 l 17.23,-10.011 c 9.9,-5.739 23.09,-4.457 37.14,3.613 l 240.91,138.418 c 3.1,1.78 5.91,1.91 7.92,0.69 v 0.02 l 14.7,-8.61 -12.71,-4.75 c -1.81,-5.3 -5.57,-10.43 -9.97,-12.96 l -240.91,-138.421 c -19.97,-11.469 -38.73,-13.289 -52.81,-5.117"
         style="fill:#5f92d3;fill-opacity:1;fill-rule:nonzero;stroke:none"
         id="path1203" /><path
         d="m 1957.6746,1540.9327 c -9.92,5.738 -23.1,4.461 -37.13,-3.609 l -59.77,-34.332 c -11.29,-6.489 -20.49,-22.34 -20.52,-35.36 l -0.06,-29.738 c 0,-7.07 -5,-15.66 -11.12,-19.184 -6.13,-3.519 -11.09,-0.648 -11.07,6.422 l 0.06,29.75 c 0.05,27.129 19.23,60.2 42.76,73.711 l 59.77,34.34 c 19.97,11.469 38.72,13.289 52.81,5.117 l 17.23,-10.008 c 9.91,-5.742 23.1,-4.46 37.14,3.61 l 240.91,138.42 c 6.12,3.52 11.09,0.64 11.08,-6.43 -0.02,-7.07 -5,-15.65 -11.14,-19.18 l -240.91,-138.42 c -19.97,-11.468 -38.73,-13.289 -52.81,-5.109 l -17.23,10"
         style="fill:#5f92d3;fill-opacity:1;fill-rule:nonzero;stroke:none"
         id="path1205" /><path
         d="m 1839.4646,1462.7337 -0.06,-29.731 -0.09,-0.609 c 0.56,1.859 0.88,3.727 0.88,5.5 l 0.06,29.738 0.23,2.602 c -0.6,-2.543 -1.01,-5.082 -1.02,-7.5"
         style="fill:#ffffff;fill-opacity:1;fill-rule:nonzero;stroke:none"
         id="path1207" /><path
         d="m 1726.6746,1169.0307 110.16,63.59 c 13.28,7.671 11.62,21.07 -3.72,29.929 -15.35,8.852 -38.55,9.813 -51.83,2.141 l -110.16,-63.59 c -13.28,-7.668 -11.61,-21.059 3.72,-29.918 15.35,-8.859 38.55,-9.832 51.83,-2.152"
         style="fill:#f2f2f2;fill-opacity:1;fill-rule:nonzero;stroke:none"
         id="path1209" /><path
         d="m 561.09467,1332.5417 -137.63,79.461 137.62,79.45 137.64,-79.45 -137.63,-79.461"
         style="fill:#f2f2f2;fill-opacity:1;fill-rule:nonzero;stroke:none"
         id="path1211" /><path
         d="m 698.72467,1502.1437 -137.63,-79.473 v 158.922 l 137.63,79.459 v -158.908"
         style="fill:#d1078d;fill-opacity:1;fill-rule:nonzero;stroke:none"
         id="path1213" /><path
         d="m 561.09467,1581.5927 -137.63,79.459 137.62,79.47 137.64,-79.47 -137.63,-79.459"
         style="fill:#ee1696;fill-opacity:1;fill-rule:nonzero;stroke:none"
         id="path1215" /><path
         d="m 561.09467,1422.6707 -137.63,79.473 v 158.908 l 137.63,-79.459 v -158.922"
         style="fill:#ee1696;fill-opacity:1;fill-rule:nonzero;stroke:none"
         id="path1217" /><path
         d="m 174.28467,2295.1317 -153.29,88.51 153.29,88.51 153.3,-88.51 -153.3,-88.51"
         style="fill:#f2f2f2;fill-opacity:1;fill-rule:nonzero;stroke:none"
         id="path1219" /><path
         d="m 327.58467,2484.0417 -153.3,-88.51 v 177.02 l 153.3,88.5 v -177.01"
         style="fill:#263c7a;fill-opacity:1;fill-rule:nonzero;stroke:none"
         id="path1221" /><path
         d="m 174.28467,2572.5517 -153.29,88.5 153.29,88.51 153.3,-88.51 -153.3,-88.5"
         style="fill:#d9effb;fill-opacity:1;fill-rule:nonzero;stroke:none"
         id="path1223" /><path
         d="m 174.28467,2395.5317 -153.29,88.51 v 177.01 l 153.29,-88.5 v -177.02"
         style="fill:#5f92d3;fill-opacity:1;fill-rule:nonzero;stroke:none"
         id="path1225" /><path
         d="m 3316.5146,2594.6817 -307.01,177.26 c -18.85,10.88 -16.48,29.88 5.27,42.44 l 296.46,171.15 c 21.76,12.57 54.67,13.93 73.52,3.05 l 307.01,-177.25 c 18.85,-10.88 16.48,-29.88 -5.28,-42.45 l -296.45,-171.15 c -21.76,-12.56 -54.67,-13.92 -73.52,-3.05"
         style="fill:#f2f2f2;fill-opacity:1;fill-rule:nonzero;stroke:none"
         id="path1227" /><path
         d="m 3704.3846,2897.0317 v 0 105.94 l -237.53,0.12 -82.1,47.41 c -18.85,10.87 -51.76,9.52 -73.52,-3.05 l -76.6,-44.23 -237.76,0.14 v -108.95 c -0.53,-7.36 3.58,-14.47 12.63,-19.7 l 307.01,-177.25 c 18.85,-10.88 51.76,-9.51 73.52,3.05 l 296.45,171.15 c 12.55,7.24 18.61,16.63 17.9,25.37"
         style="fill:#4067b1;fill-opacity:1;fill-rule:nonzero;stroke:none"
         id="path1229" /><path
         d="m 3350.6346,3057.7917 c -13.78,-0.34 -28.1,-3.81 -39.4,-10.34 l -76.6,-44.23 -237.76,0.14 v -108.95 c -0.53,-7.36 3.58,-14.47 12.63,-19.7 l 307.01,-177.25 c 9.07,-5.23 21.37,-7.6 34.12,-7.29 v 367.62"
         style="fill:#4067b1;fill-opacity:1;fill-rule:nonzero;stroke:none"
         id="path1231" /><path
         d="m 3023.7946,3003.3517 -26.92,0.01 v -108.95 c -0.53,-7.36 3.58,-14.47 12.63,-19.7 l 14.29,-8.24 v 136.88"
         style="fill:#5f92d3;fill-opacity:1;fill-rule:nonzero;stroke:none"
         id="path1233" /><path
         d="m 3321.2546,2695.1417 c 16.25,-6.96 39.76,-6.57 58.76,0.68 v 123.7 h -58.76 v -124.38"
         style="fill:#5f92d3;fill-opacity:1;fill-rule:nonzero;stroke:none"
         id="path1235" /><path
         d="m 3316.5146,2806.0117 -307.01,177.26 c -18.85,10.88 -16.48,29.88 5.27,42.44 l 296.46,171.15 c 21.76,12.57 54.67,13.93 73.52,3.05 l 307.01,-177.26 c 18.85,-10.88 16.48,-29.88 -5.28,-42.44 l -296.45,-171.15 c -21.76,-12.56 -54.67,-13.93 -73.52,-3.05"
         style="fill:#d9effb;fill-opacity:1;fill-rule:nonzero;stroke:none"
         id="path1237" /><path
         d="m 3686.4846,3001.0617 -296.45,-171.15 c -21.76,-12.57 -54.67,-13.93 -73.52,-3.05 l -307.01,177.26 c -4.2,2.42 -7.28,5.26 -9.4,8.34 -6.48,-10.42 -3.54,-21.72 9.4,-29.19 l 307.01,-177.26 c 18.85,-10.88 51.76,-9.51 73.52,3.05 l 296.45,171.15 c 16.91,9.77 22.04,23.4 14.68,34.1 -2.96,-4.74 -7.86,-9.31 -14.68,-13.25"
         style="fill:#ffffff;fill-opacity:1;fill-rule:nonzero;stroke:none"
         id="path1239" /><path
         d="m 3591.4546,2869.0717 c 0,-7.9 -5.54,-17.52 -12.4,-21.47 -6.84,-3.96 -12.39,-0.76 -12.39,7.15 0,7.91 5.55,17.53 12.39,21.49 6.86,3.94 12.4,0.74 12.4,-7.17"
         style="fill:#d9effb;fill-opacity:1;fill-rule:nonzero;stroke:none"
         id="path1241" /><path
         d="m 3631.3646,2892.1117 c 0,-7.91 -5.56,-17.52 -12.41,-21.48 -6.84,-3.95 -12.4,-0.75 -12.4,7.16 0,7.91 5.56,17.52 12.4,21.48 6.85,3.95 12.41,0.75 12.41,-7.16"
         style="fill:#d9effb;fill-opacity:1;fill-rule:nonzero;stroke:none"
         id="path1243" /><path
         d="m 3671.2546,2915.1417 c 0,-7.91 -5.55,-17.53 -12.4,-21.47 -6.85,-3.96 -12.4,-0.75 -12.4,7.16 0,7.9 5.55,17.52 12.4,21.47 6.85,3.96 12.4,0.75 12.4,-7.16"
         style="fill:#d9effb;fill-opacity:1;fill-rule:nonzero;stroke:none"
         id="path1245" /><path
         d="m 3334.6746,2915.9117 -143.66,82.94 c -8.82,5.09 -7.72,13.99 2.47,19.87 l 138.72,80.09 c 10.17,5.87 25.58,6.51 34.4,1.42 l 143.66,-82.95 c 8.82,-5.09 7.72,-13.97 -2.47,-19.85 l -138.72,-80.1 c -10.18,-5.88 -25.58,-6.51 -34.4,-1.42"
         style="fill:#5f92d3;fill-opacity:1;fill-rule:nonzero;stroke:none"
         id="path1247" /><path
         d="m 3348.4346,2985.3617 -19.89,11.47 c -1.22,0.71 -1.06,1.94 0.35,2.75 l 19.2,11.08 c 1.4,0.81 3.53,0.91 4.75,0.2 l 19.88,-11.48 c 1.22,-0.7 1.07,-1.93 -0.34,-2.74 l -19.2,-11.09 c -1.4,-0.81 -3.53,-0.89 -4.75,-0.19"
         style="fill:#d9effb;fill-opacity:1;fill-rule:nonzero;stroke:none"
         id="path1249" /><path
         d="m 3191.0146,2998.8517 0.4,-0.23 2.07,1.42 138.72,80.09 c 10.17,5.88 25.58,6.52 34.4,1.43 l 143.26,-82.71 c 8.13,5.82 8.55,13.74 0.4,18.43 l -143.66,82.95 c -8.82,5.09 -24.23,4.45 -34.4,-1.42 l -138.72,-80.09 c -10.19,-5.88 -11.29,-14.78 -2.47,-19.87"
         style="fill:#4067b1;fill-opacity:1;fill-rule:nonzero;stroke:none"
         id="path1251" /></g></g></svg>
