<svg xmlns="http://www.w3.org/2000/svg" viewBox="0 0 484.05457 125.12821">
  <g>
    <path d="M194.28186,48.90545v.17233c0,8.78925-7.24456,13.26986-18.111,13.18369H153.14431V13.92071h22.50916c9.83138,0,15.95467,4.91161,15.95467,12.49451v.17233c0,5.42872-2.93221,8.53068-6.38179,10.42632C190.83192,39.16838,194.28186,42.44267,194.28186,48.90545ZM173.32479,33.48109c4.74353,0,7.67538-1.46482,7.67538-5.08414v-.17233c0-3.18812-2.50065-4.99767-6.98532-4.99767H163.49342V33.48109Zm2.846,19.5603c4.657,0,7.50305-1.63714,7.50305-5.25609V47.613c0-3.27466-2.41485-5.25647-7.84809-5.25647H163.49342V53.04139Zm40.44749-39.03452V62.34764H205.92419V14.00687Zm57.26456,0V62.34764h-9.05515l-23.45809-30.7622v30.7622H230.84821V14.00687H240.68l22.6815,29.81445V14.00687Zm38.205-.3447,20.78437,48.68547H321.57457l-4.39814-10.85722H296.73708l-4.3985,10.85722H281.47211l20.78437-48.68547Zm-11.47,28.43583H313.468l-6.38179-15.68278Zm82.9648-28.09113V62.34764h-9.05551l-23.45772-30.7622v30.7622H340.548V14.00687h9.83137l22.68187,29.81445V14.00687Zm48.21052,33.69226,6.81186,6.80708c-5.0035,5.34263-10.521,8.61692-19.83581,8.61692a24.4758,24.4758,0,0,1-24.83746-24.90294v-.17233c0-13.70072,10.43527-24.98885,25.26865-24.98885,9.14244,0,14.57492,3.10207,19.06072,7.4967L431.44555,28.397c-3.79424-3.36045-7.58849-5.4285-12.41743-5.4285-8.19315,0-14.05755,6.80752-14.05755,15.07941v.17233c0,8.27226,5.77827,15.16587,14.05755,15.16587C424.63366,53.38606,427.99893,51.14575,431.79318,47.69913Zm52.26139,5.16993v9.39241H447.229V13.92071h36.48168v9.47857H457.75006v9.82331h22.8542v9.47857h-22.8542v10.1679Z" style="fill: #f0b90b;fill-rule: evenodd"/>
    <g>
      <polygon points="38.34 52.455 52.455 38.34 55.509 35.286 62.564 28.231 86.788 52.455 100.904 38.34 62.564 0 24.224 38.34 38.34 52.455" style="fill: #f0b90b"/>
      <rect x="52.58297" y="52.58305" width="19.96222" height="19.96216" transform="translate(-25.91492 62.56409) rotate(-45)" style="fill: #f0b90b"/>
      <polygon points="86.788 72.673 62.564 96.897 54.057 88.39 52.455 86.788 38.34 72.673 24.224 86.788 62.564 125.128 100.904 86.788 86.788 72.673" style="fill: #f0b90b"/>
      <rect x="4.1343" y="52.58302" width="19.96216" height="19.96216" transform="translate(-40.1052 28.30568) rotate(-45)" style="fill: #f0b90b"/>
      <rect x="101.0317" y="52.58305" width="19.96222" height="19.96216" transform="translate(-11.72462 96.82252) rotate(-45)" style="fill: #f0b90b"/>
    </g>
    <g>
      <path d="M166.06271,111.433a17.358,17.358,0,0,1-7.57407-1.49972,16.67242,16.67242,0,0,1-5.34433-4.03182l3.95152-3.42227a13.09454,13.09454,0,0,0,4.12859,3.18812,11.7749,11.7749,0,0,0,5.1421,1.07786,7.94733,7.94733,0,0,0,5.117-1.40683,4.64727,4.64727,0,0,0,1.72226-3.79671A3.95284,3.95284,0,0,0,171.99,98.49385a8.7799,8.7799,0,0,0-4.30614-1.68743l-3.14118-.51571q-5.1675-.88967-7.75113-3.1407a7.77958,7.77958,0,0,1-2.58339-6.18852,8.56688,8.56688,0,0,1,.88628-3.91475,8.3291,8.3291,0,0,1,2.48277-2.954,11.90924,11.90924,0,0,1,3.87508-1.85191,18.49172,18.49172,0,0,1,5.11694-.656,17.17821,17.17821,0,0,1,6.94032,1.28879,13.80092,13.80092,0,0,1,5.01535,3.72705l-4.00183,3.282a10.24657,10.24657,0,0,0-3.34389-2.625,10.95426,10.95426,0,0,0-4.91376-.985,8.38988,8.38988,0,0,0-4.71154,1.12527,3.70857,3.70857,0,0,0-1.67194,3.282,3.56523,3.56523,0,0,0,1.36813,3.071,10.38042,10.38042,0,0,0,4.25533,1.52294l3.1407.60956q5.3199.939,7.77678,3.18812a7.97567,7.97567,0,0,1,2.45663,6.18852,9.87337,9.87337,0,0,1-.86113,4.17212,8.84713,8.84713,0,0,1-2.50743,3.21134,11.75138,11.75138,0,0,1-4.02747,2.06284A18.56389,18.56389,0,0,1,166.06271,111.433Z" style="fill: #f0b90b"/>
      <path d="M212.822,85.83621h-.2535l-2.78657,5.2974-7.75114,13.08046-7.75113-13.08046-2.78658-5.2974h-.25253v25.03468H185.769V78.147h6.78841l9.47339,16.643h.30382L211.808,78.147h6.48459v32.72388H212.822Z" style="fill: #f0b90b"/>
      <path d="M249.094,110.87089,245.903,102.01H232.68026l-3.09039,8.86092h-5.82569L235.821,78.147h7.19382l12.05774,32.72388Zm-9.67561-27.84738h-.2535l-5.11646,14.43892H244.4845Z" style="fill: #f0b90b"/>
      <path d="M266.26721,110.87089h-5.7241V78.147h15.24877a10.32423,10.32423,0,0,1,7.49763,2.64918,9.55186,9.55186,0,0,1,2.73529,7.19672,9.43054,9.43054,0,0,1-1.74741,5.83633,9.27284,9.27284,0,0,1-5.14162,3.25874l7.64954,13.78291h-6.383l-7.09319-13.22075h-7.04191Zm9.11926-17.67444a5.02853,5.02853,0,0,0,3.3942-1.0498,3.76256,3.76256,0,0,0,1.21623-3.011V86.89569a3.76182,3.76182,0,0,0-1.21623-3.01008,5.03351,5.03351,0,0,0-3.3942-1.0498h-9.11926V93.19645Z" style="fill: #f0b90b"/>
      <path d="M305.63146,82.83581v28.03508H299.9064V82.83581H289.36966V78.147h26.79951v4.6888Z" style="fill: #f0b90b"/>
      <path d="M346.97051,111.433q-6.94176,0-10.89183-4.3366-3.952-4.33517-3.95152-12.587a23.67306,23.67306,0,0,1,1.013-7.26735,14.53476,14.53476,0,0,1,2.93849-5.2974,12.29182,12.29182,0,0,1,4.68589-3.25777,16.62019,16.62019,0,0,1,6.20594-1.10206,14.86832,14.86832,0,0,1,7.726,1.85675,12.62764,12.62764,0,0,1,4.88812,5.50349L354.772,87.38334a8.137,8.137,0,0,0-2.81174-3.727,9.45263,9.45263,0,0,0-11.424,1.20558,10.30491,10.30491,0,0,0-2.32989,7.15318v4.98875a10.30324,10.30324,0,0,0,2.32989,7.15317,8.215,8.215,0,0,0,6.43428,2.58823,8.34078,8.34078,0,0,0,5.1929-1.52391,9.0913,9.0913,0,0,0,2.96364-3.91475l4.60946,2.57855A13.4796,13.4796,0,0,1,354.772,109.437,14.42752,14.42752,0,0,1,346.97051,111.433Z" style="fill: #f0b90b"/>
      <path d="M387.54906,96.61872H371.53979v14.25217H365.8157V78.147h5.72409V91.93088h16.00927V78.147h5.72409v32.72388h-5.72409Z" style="fill: #f0b90b"/>
      <path d="M424.07352,110.87089l-3.191-8.86092H407.65981l-3.09039,8.86092h-5.82568L410.80052,78.147h7.19381l12.05775,32.72388Zm-9.67561-27.84738h-.2535l-5.11646,14.43892h10.43611Z" style="fill: #f0b90b"/>
      <path d="M438.81528,110.87089V78.147h5.72506v32.72388Z" style="fill: #f0b90b"/>
      <path d="M466.12082,92.7746l-3.90023-6.93839h-.15191v25.03468h-5.47156V78.147h6.383L474.53087,96.2433l3.9012,6.93935h.15191V78.147h5.47059v32.72388h-6.383Z" style="fill: #f0b90b"/>
    </g>
  </g>
</svg>
