<svg xmlns="http://www.w3.org/2000/svg" viewBox="0 0 20 3.09133">
  <g>
    <path d="M3.85655,2.39027a.13677.13677,0,0,1-.09864-.02888A.13237.13237,0,0,1,3.73145,2.27V.877A.125.125,0,0,1,3.76031.78556.12617.12617,0,0,1,3.85655.75429H4.446a.72865.72865,0,0,1,.4956.14194.53878.53878,0,0,1,.15879.42344.5356.5356,0,0,1-.15879.421.73165.73165,0,0,1-.4956.13954H4.21742V2.27a.125.125,0,0,1-.02886.09141.13678.13678,0,0,1-.09865.02888Zm.55094-.85889a.20512.20512,0,0,0,.15157-.05293.21.21,0,0,0,.05533-.15878.21343.21343,0,0,0-.05533-.1612.20512.20512,0,0,0-.15157-.05293H4.21742v.42584Z"/>
    <path d="M5.66855,2.42635A.47777.47777,0,0,1,5.30526,2.282a.586.586,0,0,1-.13472-.4114A.67138.67138,0,0,1,5.262,1.51694a.61828.61828,0,0,1,.26224-.23336.87574.87574,0,0,1,.39215-.08421,1.14908,1.14908,0,0,1,.32239.0409.94593.94593,0,0,1,.25982.11307v.96234a.07921.07921,0,0,1-.01683.06015.10974.10974,0,0,1-.06737.01444H6.169a.09365.09365,0,0,1-.0409-.00722.07272.07272,0,0,1-.024-.02887L6.07274,2.282a.40693.40693,0,0,1-.16841.10827A.675.675,0,0,1,5.66855,2.42635Zm.18044-.3272a.2173.2173,0,0,0,.14676-.04571.16238.16238,0,0,0,.05293-.12991V1.54822a.26979.26979,0,0,0-.11549-.02165.257.257,0,0,0-.20449.089.37872.37872,0,0,0-.07459.25021Q5.65411,2.09916,5.849,2.09915Z"/>
    <path d="M6.83337,2.39027a.13674.13674,0,0,1-.09863-.02888A.125.125,0,0,1,6.70586,2.27V1.31A.08355.08355,0,0,1,6.7203,1.2523a.09747.09747,0,0,1,.06736-.01685h.2478a.07879.07879,0,0,1,.04331.00963A.03248.03248,0,0,1,7.098,1.274l.012.07218a.46328.46328,0,0,1,.17563-.10586.70317.70317,0,0,1,.2454-.0409A.44712.44712,0,0,1,7.84624,1.31a.41167.41167,0,0,1,.12029.32239V2.27a.125.125,0,0,1-.02887.09141.12773.12773,0,0,1-.09624.02888H7.60806a.14626.14626,0,0,1-.101-.02888A.125.125,0,0,1,7.47814,2.27V1.6637a.14255.14255,0,0,0-.03128-.10346A.13478.13478,0,0,0,7.34823,1.529a.16736.16736,0,0,0-.11548.0385.13828.13828,0,0,0-.0409.10585V2.27a.12492.12492,0,0,1-.02888.09141.12769.12769,0,0,1-.09623.02888Z"/>
    <path d="M8.81693,2.42635A.77651.77651,0,0,1,8.29726,2.27a.56531.56531,0,0,1-.18285-.45471.61181.61181,0,0,1,.0842-.32239.56172.56172,0,0,1,.243-.21653.87387.87387,0,0,1,.38013-.077,1.063,1.063,0,0,1,.27907.03127.61691.61691,0,0,1,.2045.09624.05.05,0,0,1,.02646.04331.10536.10536,0,0,1-.01925.05051l-.09863.17083q-.01684.03368-.0409.03367A.10527.10527,0,0,1,9.12728,1.606a.57374.57374,0,0,0-.12271-.06013A.43.43,0,0,0,8.865,1.52657a.25915.25915,0,0,0-.19488.077.29733.29733,0,0,0-.07217.21172.28635.28635,0,0,0,.07458.21171.28165.28165,0,0,0,.20449.07217.42456.42456,0,0,0,.13955-.02165.69961.69961,0,0,0,.1275-.06015.11959.11959,0,0,1,.04813-.01923q.02165,0,.03849.03367L9.339,2.217a.09324.09324,0,0,1,.012.0385.05235.05235,0,0,1-.02887.0409.76007.76007,0,0,1-.22134.09623A1.0432,1.0432,0,0,1,8.81693,2.42635Z"/>
    <path d="M9.961,2.42635A.47769.47769,0,0,1,9.59774,2.282.58589.58589,0,0,1,9.463,1.8706a.6713.6713,0,0,1,.09143-.35366.61825.61825,0,0,1,.26223-.23336.8758.8758,0,0,1,.39215-.08421,1.149,1.149,0,0,1,.32239.0409.94593.94593,0,0,1,.25984.11307v.96234a.07912.07912,0,0,1-.01685.06015.10972.10972,0,0,1-.06736.01444h-.24539a.09353.09353,0,0,1-.0409-.00722.07275.07275,0,0,1-.02407-.02887L10.3652,2.282a.4068.4068,0,0,1-.16841.10827A.67487.67487,0,0,1,9.961,2.42635Zm.18044-.3272a.2173.2173,0,0,0,.14676-.04571.16232.16232,0,0,0,.05293-.12991V1.54822a.26974.26974,0,0,0-.11548-.02165.257.257,0,0,0-.2045.089.37872.37872,0,0,0-.07458.25021Q9.94658,2.09916,10.14145,2.09915Z"/>
    <path d="M12.3023,2.29884a.06405.06405,0,0,1,.01684.04331.049.049,0,0,1-.01443.03609.05826.05826,0,0,1-.0385.012h-.3729a.19656.19656,0,0,1-.05052-.00482.1094.1094,0,0,1-.03128-.02646l-.3272-.44509V2.27a.125.125,0,0,1-.02887.09141.13676.13676,0,0,1-.09864.02888h-.23336a.13676.13676,0,0,1-.09864-.02888A.13237.13237,0,0,1,10.99833,2.27V.877A.125.125,0,0,1,11.0272.78556a.12615.12615,0,0,1,.09624-.03127h.23336a.12984.12984,0,0,1,.09864.03127A.125.125,0,0,1,11.48431.877v.806l.31758-.4138a.079.079,0,0,1,.03127-.02646.13476.13476,0,0,1,.05053-.00723h.3729a.04432.04432,0,0,1,.03609.01444.04146.04146,0,0,1,.01443.03369.064.064,0,0,1-.01684.0433l-.4114.47155Z"/>
    <path d="M13.0835,2.42635a.91633.91633,0,0,1-.36088-.06736.55976.55976,0,0,1-.24781-.20209.57327.57327,0,0,1-.09142-.32961.60626.60626,0,0,1,.17324-.46672.70468.70468,0,0,1,.498-.1612.66418.66418,0,0,1,.48113.15878.569.569,0,0,1,.166.43547q0,.12027-.10588.12028H12.8405a.18355.18355,0,0,0,.077.15879.41764.41764,0,0,0,.23813.05534.66559.66559,0,0,0,.16362-.01684.68229.68229,0,0,0,.13475-.05534.13221.13221,0,0,1,.0385-.012c.01438,0,.0265.00961.03612.02886l.08176.154a.09257.09257,0,0,1,.012.03608.05232.05232,0,0,1-.02887.0409.68013.68013,0,0,1-.22375.09383A1.27872,1.27872,0,0,1,13.0835,2.42635Zm.18525-.75062a.18662.18662,0,0,0-.053-.142.22182.22182,0,0,0-.15875-.05051.22434.22434,0,0,0-.16113.05292.17955.17955,0,0,0-.05537.13954Z"/>
    <path d="M14.52637,2.42635a1.72568,1.72568,0,0,1-.38249-.0409.86053.86053,0,0,1-.29113-.12028q-.04087-.02647-.04087-.05534a.07436.07436,0,0,1,.01437-.0409l.11788-.18766c.01287-.01924.02575-.02887.0385-.02887a.10132.10132,0,0,1,.041.01684.884.884,0,0,0,.202.0818.8366.8366,0,0,0,.22375.03128.31714.31714,0,0,0,.166-.03369.11721.11721,0,0,0,.05538-.10826.12941.12941,0,0,0-.06012-.11308,1.14126,1.14126,0,0,0-.219-.10345,1.34322,1.34322,0,0,1-.38013-.20449.39078.39078,0,0,1-.13463-.31276.42234.42234,0,0,1,.17075-.36328A.75273.75273,0,0,1,14.50237.7182a1.361,1.361,0,0,1,.33675.03609.661.661,0,0,1,.24063.10586q.04087.03128.04087.05774a.07182.07182,0,0,1-.01437.03849l-.11788.18766c-.01449.01924-.02737.02886-.0385.02886a.10123.10123,0,0,1-.041-.01683.59193.59193,0,0,0-.332-.09143.30764.30764,0,0,0-.15874.03369.1195.1195,0,0,0-.05538.11066.12831.12831,0,0,0,.02888.08661.27483.27483,0,0,0,.077.06015q.05061.02406.154.06255l.04575.01684a1.632,1.632,0,0,1,.279.13473.42917.42917,0,0,1,.15637.15638.45488.45488,0,0,1,.053.231.41316.41316,0,0,1-.16125.34162A.737.737,0,0,1,14.52637,2.42635Z"/>
    <path d="M15.66788,2.39027a.10548.10548,0,0,1-.05538-.012.07763.07763,0,0,1-.02875-.04812l-.31038-1.03933a.07579.07579,0,0,1-.00487-.02165c0-.02245.01613-.03369.04812-.03369h.31763a.07058.07058,0,0,1,.04563.012.04969.04969,0,0,1,.01925.03368l.13.54612.1635-.44026a.10054.10054,0,0,1,.02412-.0385.07552.07552,0,0,1,.04812-.012h.15151a.0652.0652,0,0,1,.04575.012.08432.08432,0,0,1,.0265.0385l.16112.44026.13237-.54612a.06636.06636,0,0,1,.01926-.03368.06073.06073,0,0,1,.04324-.012h.32q.04819,0,.04813.03369a.07855.07855,0,0,1-.00475.02165l-.31275,1.03933a.07824.07824,0,0,1-.02888.04812.09238.09238,0,0,1-.053.012h-.23575a.0869.0869,0,0,1-.05049-.012.11174.11174,0,0,1-.02888-.04812l-.15875-.43545-.15887.43545a.06966.06966,0,0,1-.07938.06015Z"/>
    <path d="M17.62263,2.42635a.47763.47763,0,0,1-.36326-.14435.58571.58571,0,0,1-.13475-.4114.672.672,0,0,1,.09138-.35366.619.619,0,0,1,.26225-.23336.87582.87582,0,0,1,.39212-.08421,1.149,1.149,0,0,1,.32238.0409.94684.94684,0,0,1,.25988.11307v.96234a.07907.07907,0,0,1-.01688.06015.10968.10968,0,0,1-.06737.01444H18.123a.09358.09358,0,0,1-.04088-.00722.07238.07238,0,0,1-.024-.02887L18.02675,2.282a.40667.40667,0,0,1-.16837.10827A.67473.67473,0,0,1,17.62263,2.42635Zm.18037-.3272a.21706.21706,0,0,0,.14675-.04571.16211.16211,0,0,0,.053-.12991V1.54822a.26993.26993,0,0,0-.1155-.02165.25705.25705,0,0,0-.2045.089.37856.37856,0,0,0-.07462.25021Q17.60813,2.09916,17.803,2.09915Z"/>
    <path d="M18.785,2.87624a.13678.13678,0,0,1-.09863-.02886.1326.1326,0,0,1-.02649-.09143V1.3774a.95407.95407,0,0,1,.27187-.12751,1.15208,1.15208,0,0,1,.34162-.05052q.72657,0,.72663.6159a.62863.62863,0,0,1-.154.44508.56443.56443,0,0,1-.4355.166.61232.61232,0,0,1-.15388-.01925.37934.37934,0,0,1-.12037-.05292V2.756a.125.125,0,0,1-.02888.09143.13672.13672,0,0,1-.09862.02886Zm.52213-.77467a.17158.17158,0,0,0,.154-.077.37654.37654,0,0,0,.05288-.21171.30556.30556,0,0,0-.0625-.21894.24461.24461,0,0,0-.18775-.065.32184.32184,0,0,0-.12988.02166v.38252a.164.164,0,0,0,.04575.1251A.17806.17806,0,0,0,19.30713,2.10157Z"/>
    <path d="M.54875.4832a.40825.40825,0,1,1,.80956-.075V.91156q.0846-.006.17174-.006.08364,0,.1651.00556V.40825a.40825.40825,0,1,1,.80956.075l-.11047.59161a.95893.95893,0,0,1,.66587.81434v.21858a.86691.86691,0,0,1-.47134.71377,2.0587,2.0587,0,0,1-1.05872.26983A2.05872,2.05872,0,0,1,.47133,2.8215.86692.86692,0,0,1,0,2.10773V1.88915A.956.956,0,0,1,.65973,1.0775Zm1.7039.66934L2.38194.46027a.28335.28335,0,1,0-.56189-.052v.6405q-.0615-.00787-.1249-.01244-.08122-.00581-.1651-.00586-.08721,0-.17174.00634-.06336.00472-.1249.01283V.40825a.28335.28335,0,1,0-.56188.052l.12971.69457C.39575,1.30545.1249,1.578.1249,1.88915v.21858c0,.47425.62911.8587,1.40515.8587s1.40516-.38445,1.40516-.8587V1.88915C2.93521,1.57638,2.66159,1.30268,2.25265,1.15254Z" style="fill: #633001;fill-rule: evenodd"/>
    <path d="M2.93519,2.10774c0,.47425-.62911.8587-1.40516.8587S.12488,2.582.12488,2.10774V1.88915H2.93519Z" style="fill: #fedc90"/>
    <path d="M.6715.46024a.28335.28335,0,1,1,.56189-.052v.64136A2.30513,2.30513,0,0,1,1.82,1.04873V.40823a.28335.28335,0,1,1,.56189.052l-.12929.69227c.40894.15014.68257.42386.68257.73662,0,.47425-.62911.8587-1.40516.8587S.12488,2.36338.12488,1.88913c0-.31118.27084-.5837.67633-.73432Z" style="fill: #d1884f;fill-rule: evenodd"/>
    <path d="M1.13977,1.82672c0,.12935-.0699.2342-.15613.2342s-.15612-.10485-.15612-.2342.06989-.23419.15612-.23419S1.13977,1.69738,1.13977,1.82672Z" style="fill: #633001"/>
    <path d="M2.217,1.82672c0,.12935-.0699.2342-.15613.2342s-.15612-.10485-.15612-.2342.0699-.23419.15612-.23419S2.217,1.69738,2.217,1.82672Z" style="fill: #633001"/>
  </g>
</svg>
