<svg xmlns="http://www.w3.org/2000/svg" viewBox="0 0 697.93282 162.44463">
  <g>
    <g>
      <path d="M55.2969,36.94589c-1.75933-.25133-1.84311-.33511-1.00533-.41889a27.63684,27.63684,0,0,1,7.87509.67022c6.032,1.42422,11.47752,5.11043,17.25817,11.5613l1.508,1.75933,2.17821-.33511a46.71427,46.71427,0,0,1,26.80882,3.3511,34.72877,34.72877,0,0,1,6.032,3.51865,8.0976,8.0976,0,0,1,.58644,2.34577c.58644,3.93755.3351,6.86976-.92156,9.13176a2.4512,2.4512,0,0,0-.25134,2.68088,2.52287,2.52287,0,0,0,2.262,1.42421c2.01065,0,4.10509-3.18355,5.11043-7.62375l.41889-1.75933.754.83778c4.27266,4.77531,7.62376,11.39374,8.12642,16.08529l.16755,1.25666-.754-1.08911A14.14591,14.14591,0,0,0,127.42934,76.07c-2.84843-1.92688-5.86442-2.51332-13.82329-2.93221-7.20486-.41889-11.31-1.00533-15.33129-2.34577C91.405,68.53,87.88635,65.5978,79.75993,54.7905a77.004,77.004,0,0,0-8.12642-9.55064A28.41957,28.41957,0,0,0,55.2969,36.94589Z" style="fill: #010101"/>
      <path d="M117.71116,47.58564a18.117,18.117,0,0,1,1.508-7.20487,5.775,5.775,0,0,1,.754-1.42422c.08378,0-.08378.58644-.33511,1.25666a16.00148,16.00148,0,0,0-.3351,7.37242c.58644,3.77.83777,4.27266,4.8591,8.37776,1.8431,1.92688,4.02132,4.35643,4.8591,5.36176l1.42421,1.8431-1.42421-1.34044a50.99713,50.99713,0,0,0-6.7022-5.278c-.58644-.33511-.67023-.33511-1.08912.08377-.3351.33512-.41888.83778-.41888,3.26733-.08379,3.77-.58644,6.11576-1.84311,8.5453-.67022,1.25667-.754,1.00533-.16755-.41888.41889-1.08911.50267-1.59178.50267-5.19421,0-7.28864-.83777-9.048-5.94821-11.98018-1.25666-.754-3.43488-1.84311-4.69154-2.42955a18.55486,18.55486,0,0,1-2.262-1.08911,37.43308,37.43308,0,0,1,7.03731,2.09444c2.93222,1.17288,3.43489,1.25666,3.77,1.17288C117.45982,50.3503,117.62738,49.68008,117.71116,47.58564Z" style="fill: #010101"/>
      <path d="M58.73177,60.06849c-3.51865-4.8591-5.78065-12.39908-5.278-18.01217l.16756-1.75933.83777.16756a19.66028,19.66028,0,0,1,5.36177,2.01066C63.172,44.48587,64.68,47.25053,66.1042,54.12028c.41889,2.01067,1.00533,4.35643,1.25666,5.11043a30.24463,30.24463,0,0,0,3.3511,6.032c.92156,1.34044.33512,2.01066-1.75932,1.84311C65.76909,66.77069,61.49644,63.83848,58.73177,60.06849Z" style="fill: #010101"/>
      <path d="M113.4385,96.51171c-16.588-6.7022-22.45238-12.48285-22.45238-22.28482,0-1.42421.08377-2.5971.08377-2.5971a15.73789,15.73789,0,0,1,1.42422,1.08911c3.3511,2.68088,7.12109,3.85377,17.59329,5.36176,6.11576.92155,9.63441,1.59178,12.818,2.68088,10.13709,3.3511,16.4204,10.22086,17.92839,19.52016a33.88421,33.88421,0,0,1-.50267,10.47219c-.58644,2.09444-2.262,5.94821-2.68088,6.032-.08378,0-.25133-.41888-.25133-1.08911a13.63215,13.63215,0,0,0-4.8591-9.46686C129.02113,103.21392,124.49714,100.95193,113.4385,96.51171Z" style="fill: #010101"/>
      <path d="M101.70965,99.27637a19.84545,19.84545,0,0,0-.83777-3.51865l-.41889-1.25666.754.92155a14.74973,14.74973,0,0,1,2.68088,4.8591c.58644,1.59177.58644,2.09444.58644,4.69154a10.68787,10.68787,0,0,1-.58644,4.524,15.15953,15.15953,0,0,1-3.51866,5.61309c-3.016,3.09977-6.95354,4.77532-12.56663,5.52933-1.00533.08378-3.85376.3351-6.36709.50267-6.28331.3351-10.47219,1.00532-14.24218,2.34577-.50266.16755-1.00533.3351-1.08911.25133-.16755-.16755,2.42955-1.67555,4.524-2.68087,2.93221-1.42422,5.9482-2.17823,12.56663-3.35111a57.40022,57.40022,0,0,0,7.4562-1.508C98.945,113.60234,103.05009,107.15146,101.70965,99.27637Z" style="fill: #010101"/>
      <path d="M109.33341,112.76456q-3.26733-7.163-1.508-13.57195c.16755-.41889.3351-.83778.50267-.83778a3.60381,3.60381,0,0,1,1.17288.58644c1.00533.67022,3.09976,1.8431,8.46153,4.77532,6.786,3.6862,10.63975,6.53465,13.32063,9.802a20.71963,20.71963,0,0,1,4.44021,10.13708,33.23011,33.23011,0,0,1-.41889,9.96952c-1.8431,7.12109-6.032,12.818-12.14774,16.08529a11.64378,11.64378,0,0,1-1.75934.83777,6.66149,6.66149,0,0,1,.754-1.8431,16.62829,16.62829,0,0,0,.754-12.98552c-.92156-2.84843-2.84843-6.28331-6.7022-12.064C111.5954,116.95344,110.50629,115.19411,109.33341,112.76456Z" style="fill: #010101"/>
      <path d="M46.91914,138.40048a45.54253,45.54253,0,0,1,20.86061-10.0533,31.04328,31.04328,0,0,1,10.8073.41888c4.44022,1.17288,8.46153,3.68621,10.556,6.786,2.01066,3.016,2.93221,5.61309,3.85377,11.39375.33511,2.262.754,4.60776.83777,5.11043a11.24371,11.24371,0,0,0,3.68621,6.61842c2.59711,1.92689,7.12109,2.01066,11.5613.33511a5.63045,5.63045,0,0,1,1.42422-.41889c.16755.16755-2.09444,1.67555-3.60244,2.42954a11.86132,11.86132,0,0,1-6.032,1.42422c-4.02132,0-7.4562-2.09444-10.22086-6.28332a47.09873,47.09873,0,0,1-2.76466-5.52932c-2.93221-6.786-4.44021-8.79664-7.87509-11.05863a10.323,10.323,0,0,0-9.802-.92156,6.30889,6.30889,0,0,0-2.17821,9.802,8.56573,8.56573,0,0,0,4.77532,2.51333,5.111,5.111,0,0,0,5.78065-5.11044,4.01094,4.01094,0,0,0-2.76466-4.10509c-2.68088-1.17288-5.6131.16755-5.52932,2.76466a2.304,2.304,0,0,0,1.59177,2.262c.67023.3351.67023.3351.16756.25134-2.42955-.50268-3.016-3.51866-1.08911-5.44554,2.34577-2.34578,7.28864-1.34045,8.96419,1.92688a8.77761,8.77761,0,0,1,.16755,5.69688,7.83478,7.83478,0,0,1-9.55064,4.524c-2.76466-.754-3.93754-1.508-7.28864-4.94287-5.86443-6.032-8.12642-7.20487-16.50417-8.46154L45.1598,140.076Z" style="fill: #010101"/>
      <path d="M2.85216,3.60243c19.52017,23.709,49.5963,60.57116,51.1043,62.58182,1.25666,1.67555.754,3.26732-1.34044,4.44021A12.81954,12.81954,0,0,1,47.8407,71.9649a6.04526,6.04526,0,0,1-4.02132-1.75933c-.754-.754-4.02132-5.52931-11.39374-17.00683-5.6131-8.79665-10.38842-16.08529-10.4722-16.16907-.33511-.16756-.33511-.16756,9.88575,18.09595C38.29006,66.60314,40.3845,70.70824,40.3845,71.2109c0,1.08911-.33511,1.67555-1.67555,3.18355-2.262,2.51333-3.26733,5.36176-4.02132,11.31-.83778,6.61842-3.09977,11.31-9.55064,19.26883-3.77,4.69155-4.35643,5.52932-5.278,7.45619a14.16854,14.16854,0,0,0-1.67555,6.70221,20.96079,20.96079,0,0,0,1.08911,8.2102,27.98533,27.98533,0,0,0,4.02132,7.87508c1.92688,3.016,3.09977,5.278,3.09977,6.11576,0,.67023.16755.67023,3.18354,0,7.20487-1.67555,13.15308-4.524,16.4204-8.04264,2.01066-2.17823,2.51333-3.35111,2.51333-6.3671a6.83226,6.83226,0,0,0-.58644-3.51866c-.83778-1.8431-2.42955-3.3511-5.86443-5.69687-4.524-3.09977-6.45087-5.61309-6.95354-8.96419-.41888-2.84844.08378-4.77532,2.59711-10.05331,2.5971-5.44554,3.26732-7.70753,3.68621-13.23685.25133-3.51865.67022-4.94288,1.67555-6.032,1.08911-1.17289,2.01066-1.59177,4.60776-1.92689,4.27266-.58644,7.03732-1.67555,9.21553-3.77a7.87382,7.87382,0,0,0,2.84844-6.11577l.08378-1.92688L58.73177,64.5087C54.79423,59.98471.25506,0,.00373,0-.08,0,1.26039,1.59177,2.85216,3.60243Zm25.7197,119.13165a3.45847,3.45847,0,0,0-1.0891-4.60776c-1.42422-.92156-3.60244-.50267-3.60244.754a.85506.85506,0,0,0,.67022.83778c.754.41889.83778.83777.25133,1.75933s-.58644,1.75933.16756,2.34577C26.14232,124.74474,27.73409,124.24208,28.57186,122.73408Z" style="fill: #010101;fill-rule: evenodd"/>
      <path d="M62.50176,78.6671a7.4368,7.4368,0,0,0-4.524,4.94288c-.33512,1.34044-.16756,3.77.41888,4.524.92155,1.17288,1.75933,1.508,4.1051,1.508,4.60777,0,8.54531-2.01067,8.9642-4.44022.41888-2.01066-1.34044-4.77531-3.77-6.032A8.51654,8.51654,0,0,0,62.50176,78.6671ZM67.86353,82.856c.67022-1.00533.41888-2.09444-.83778-2.84844-2.262-1.42421-5.69687-.25133-5.69687,1.92689,0,1.08911,1.75932,2.262,3.43487,2.262A4.62733,4.62733,0,0,0,67.86353,82.856Z" style="fill: #010101;fill-rule: evenodd"/>
    </g>
    <g>
      <path d="M228.17231,99.46764V53.40255h10.93935V99.46764a28.52635,28.52635,0,0,0,2.099,10.99859,26.81838,26.81838,0,0,0,5.85407,8.84034,27.20541,27.20541,0,0,0,8.84034,5.88369,29.61828,29.61828,0,0,0,22.05776,0,26.96972,26.96972,0,0,0,14.724-14.724,28.19557,28.19557,0,0,0,2.12863-10.99859V53.40255h10.88145V99.46764a39.43835,39.43835,0,0,1-2.95665,15.31509,37.21524,37.21524,0,0,1-20.461,20.461,41.147,41.147,0,0,1-30.63152,0,37.39351,37.39351,0,0,1-20.48923-20.461A39.06489,39.06489,0,0,1,228.17231,99.46764Z"/>
      <path d="M322.60884,138.20034V77.64684h10.05208V85.748a20.7781,20.7781,0,0,1,8.89958-7.3324,28.38932,28.38932,0,0,1,11.20593-2.24711,24.34739,24.34739,0,0,1,10.11267,1.95226,18.94609,18.94609,0,0,1,7.09543,5.40976,23.35852,23.35852,0,0,1,4.16975,8.36776,39.2388,39.2388,0,0,1,1.38946,10.70373v35.59832H364.88925V102.12809q0-7.98135-3.93278-12.12147a13.65053,13.65053,0,0,0-10.37791-4.14012,17.361,17.361,0,0,0-8.57375,1.893,14.81274,14.81274,0,0,0-5.38149,5.08528,21.22332,21.22332,0,0,0-2.80855,7.6286,53.66467,53.66467,0,0,0-.7984,9.52026v28.20669Z"/>
      <path d="M390.02215,60.20312a8.32179,8.32179,0,1,1,8.2789,8.21966,8.05042,8.05042,0,0,1-5.88369-2.36559A7.89861,7.89861,0,0,1,390.02215,60.20312Zm3.07514,77.99722V77.64684h10.40752v60.5535Z"/>
      <path d="M413.14356,125.48646l8.633-5.44073a15.35669,15.35669,0,0,0,7.80632,7.80632,26.86079,26.86079,0,0,0,10.58525,2.12863q5.91129,0,9.25368-2.07342a6.94761,6.94761,0,0,0,3.34172-6.33877,6.624,6.624,0,0,0-.97478-3.76044,7.54035,7.54035,0,0,0-2.717-2.4006,17.48976,17.48976,0,0,0-4.24379-1.54968q-2.50023-.59982-5.48785-1.32215-3.72612-.70887-7.74708-1.862a30.48729,30.48729,0,0,1-7.362-3.164,17.35613,17.35613,0,0,1-5.5-5.20377,14.27375,14.27375,0,0,1-2.15825-8.16041,16.13145,16.13145,0,0,1,5.97255-12.98046q5.97187-4.99442,16.67628-4.99643,9.10625,0,14.8425,3.5181a25.58392,25.58392,0,0,1,9.10693,9.61047l-8.57511,5.43938a17.54138,17.54138,0,0,0-5.64672-6.297q-3.69582-2.57293-10.02381-2.57293a16.52452,16.52452,0,0,0-8.51451,2.02092,6.26064,6.26064,0,0,0-3.43058,5.644,5.66087,5.66087,0,0,0,1.09326,3.59618,9.45156,9.45156,0,0,0,3.01185,2.43561,20.29845,20.29845,0,0,0,4.51846,1.72336q2.59717.68465,5.72885,1.3962,3.66957.89064,7.60032,1.83916a24.15857,24.15857,0,0,1,7.06851,2.892,16.02413,16.02413,0,0,1,5.15529,5.11355,15.39007,15.39007,0,0,1,2.01419,8.34622,19.02539,19.02539,0,0,1-1.74491,8.427,15.65565,15.65565,0,0,1-4.90756,5.88369,21.57645,21.57645,0,0,1-7.39164,3.39961,36.6236,36.6236,0,0,1-9.19578,1.09461,42.0054,42.0054,0,0,1-8.24928-.79841,30.04907,30.04907,0,0,1-7.51011-2.54331,25.86409,25.86409,0,0,1-6.35627-4.435A22.28015,22.28015,0,0,1,413.14356,125.48646Z"/>
      <path d="M465.53529,77.64684h11.88586l17.2081,44.94221,18.39157-44.94221h7.51011l18.44946,44.94221,17.14886-44.94221h11.88586l-24.8367,60.5535h-7.98269L516.80549,94.73646l-18.45081,43.46388H490.372Z"/>
      <path d="M571.62206,120.63814a18.705,18.705,0,0,1,1.446-7.59763,16.50187,16.50187,0,0,1,4.10242-5.68307,20.52464,20.52464,0,0,1,6.17046-3.79814,26.889,26.889,0,0,1,7.76459-1.76511l17.08423-1.757q3.93816-.34737,3.87892-3.195V95.27367A8.65674,8.65674,0,0,0,608.758,88.185q-3.31209-2.67189-10.11267-2.67257a19.54008,19.54008,0,0,0-10.46677,2.60121,11.35882,11.35882,0,0,0-5.14452,8.2789l-9.22406-4.9668a19.06216,19.06216,0,0,1,7.51012-11.02821q5.79414-4.229,16.85265-4.229,12.59607,0,18.44946,5.88369,5.85474,5.885,5.85407,16.76514v39.383H612.0687v-8.5751a21.488,21.488,0,0,1-8.21966,7.18563,25.453,25.453,0,0,1-11.64889,2.57159,24.64068,24.64068,0,0,1-8.7811-1.4487,18.86347,18.86347,0,0,1-6.41685-3.93144,16.77044,16.77044,0,0,1-3.99067-5.9133A19.65668,19.65668,0,0,1,571.62206,120.63814Zm10.88011.11983a8.06149,8.06149,0,0,0,2.86779,6.38589q2.86779,2.48205,8.427,2.48138a19.81831,19.81831,0,0,0,7.74708-1.41909,18.51889,18.51889,0,0,0,5.73558-3.69581,15.60066,15.60066,0,0,0,3.57734-5.08529,14.2761,14.2761,0,0,0,1.21174-5.706v-4.435l-19.74872,2.371q-5.0873.59173-7.45222,3.16265A8.51132,8.51132,0,0,0,582.50217,120.758Z"/>
      <path d="M636.966,162.44463V77.64684h10.40752v8.69359a26.0222,26.0222,0,0,1,8.66262-7.33374,26.49821,26.49821,0,0,1,12.68426-2.83818,29.86358,29.86358,0,0,1,11.56138,2.24711,26.62139,26.62139,0,0,1,9.28329,6.35762,29.95594,29.95594,0,0,1,6.12065,9.99284,39.64416,39.64416,0,0,1,0,26.315,29.94881,29.94881,0,0,1-6.12065,9.99419,26.6,26.6,0,0,1-9.28329,6.35627,29.86358,29.86358,0,0,1-11.56138,2.24711,25.14447,25.14447,0,0,1-12.41768-2.8678,30.93349,30.93349,0,0,1-8.9292-7.48049v33.11425Zm9.698-54.52037q0,10.05343,5.43938,16.05425,5.44073,6.00217,14.78461,6.00217a20.82306,20.82306,0,0,0,8.4849-1.656,18.3888,18.3888,0,0,0,6.35761-4.55346,19.9286,19.9286,0,0,0,3.99068-6.94733,29.19592,29.19592,0,0,0,0-17.79916,19.947,19.947,0,0,0-3.99068-6.94867,18.424,18.424,0,0,0-6.35761-4.55346,20.8454,20.8454,0,0,0-8.4849-1.656q-9.34455,0-14.78461,6.00217Q646.66262,97.87083,646.664,107.92426Z"/>
    </g>
  </g>
</svg>
